<?xml version="1.0" encoding="utf-8"?>
<!-- Generator: Adobe Illustrator 23.0.4, SVG Export Plug-In . SVG Version: 6.00 Build 0)  -->
<svg version="1.1" id="Layer_1" xmlns="http://www.w3.org/2000/svg" xmlns:xlink="http://www.w3.org/1999/xlink" x="0px" y="0px"
	 viewBox="0 0 24 24" style="enable-background:new 0 0 24 24;" xml:space="preserve">
<style type="text/css">
	.st0{fill:none;}
</style>
<path class="st0" d="M0,0h24v24H0V0z"/>
<path d="M20,7h-8.2l-1.6-2.2C9.7,4.3,9.1,4,8.5,4H4C2.9,4,2,4.9,2,6v13c0,1.1,0.9,2,2,2h16c1.1,0,2-0.9,2-2V9C22,7.9,21.1,7,20,7z
	 M4,19V6h4.5l1.6,2.2c0.4,0.5,1,0.8,1.6,0.8H20v10H4z"/>
</svg>
