<?xml version="1.0" encoding="UTF-8"?>
<svg version="1.1" viewBox="0 0 24 24" xmlns="http://www.w3.org/2000/svg" xmlns:xlink="http://www.w3.org/1999/xlink">
    <!--Generated by IJSVG (https://github.com/curthard89/IJSVG)-->
    <g fill="#000000">
        <path d="M15,1.503l6,4.286v4.742c0,0.276 0.224,0.5 0.5,0.5c0.276,0 0.5,-0.224 0.5,-0.5v-5c0,-0.162 -0.078,-0.313 -0.209,-0.407l-7,-5c-0.009,-0.006 -0.021,-0.003 -0.03,-0.01c-0.077,-0.048 -0.163,-0.083 -0.261,-0.083c-0.098,0 -0.184,0.035 -0.261,0.083c-0.009,0.006 -0.021,0.003 -0.03,0.01l-6.709,4.793l-6.709,-4.793c-0.152,-0.11 -0.353,-0.124 -0.52,-0.038c-0.167,0.086 -0.271,0.257 -0.271,0.445v16c0,0.162 0.078,0.313 0.209,0.407l7,5c0.009,0.007 0.021,0.004 0.03,0.01c0.077,0.048 0.163,0.083 0.261,0.083c0.098,0 0.184,-0.035 0.261,-0.083c0.009,-0.006 0.021,-0.003 0.03,-0.01l6,-4.286c0.225,-0.16 0.277,-0.473 0.116,-0.697c-0.161,-0.225 -0.472,-0.277 -0.697,-0.117l-5.21,3.722v-14.772l6,-4.286v9.029c0,0.276 0.224,0.5 0.5,0.5c0.276,0 0.5,-0.224 0.5,-0.5v-9.028Zm-14,0l6,4.286v14.771l-6,-4.285v-14.772Z" transform="translate(0, -0.031)"></path>
        <path d="M4.5,0c-2.481,0 -4.5,2.019 -4.5,4.5c0,2.323 3.695,6.816 4.116,7.32c0.095,0.114 0.236,0.18 0.384,0.18c0.148,0 0.289,-0.066 0.384,-0.18c0.421,-0.504 4.116,-4.997 4.116,-7.32c0,-2.481 -2.019,-4.5 -4.5,-4.5Zm0,10.707c-1.245,-1.566 -3.5,-4.715 -3.5,-6.207c0,-1.93 1.57,-3.5 3.5,-3.5c1.93,0 3.5,1.57 3.5,3.5c0,1.491 -2.256,4.64 -3.5,6.207Z" transform="translate(15, 12)"></path>
        <path d="M2,0c-1.103,0 -2,0.897 -2,2c0,1.103 0.897,2 2,2c1.103,0 2,-0.897 2,-2c0,-1.103 -0.897,-2 -2,-2Zm0,3c-0.551,0 -1,-0.449 -1,-1c0,-0.551 0.449,-1 1,-1c0.551,0 1,0.449 1,1c0,0.551 -0.449,1 -1,1Z" transform="translate(17.5, 14.5)"></path>
    </g>
    <path fill="none" d="M0,0h24v24h-24Z"></path>
</svg>