<?xml version="1.0" encoding="UTF-8"?><svg version="1.1" viewBox="0 0 24 24" xmlns="http://www.w3.org/2000/svg" xmlns:xlink="http://www.w3.org/1999/xlink"><!--Generated by IJSVG (https://github.com/iconjar/IJSVG)--><path d="M0,0h24v24h-24Z" fill="none"></path><path fill="#384248" d="M7,14h2v4h2v-3h2v3h2v-4h2l-5,-4Z"></path><path d="M20,7h-8.25l-1.65,-2.2c-0.375,-0.501 -0.974,-0.8 -1.6,-0.8h-4.5c-1.103,0 -2,0.898 -2,2v13c0,1.103 0.897,2 2,2h16c1.103,0 2,-0.897 2,-2v-10c0,-1.102 -0.897,-2 -2,-2Zm-16,12v-13h4.5l1.65,2.2c0.375,0.501 0.974,0.8 1.6,0.8h8.25l0.001,10h-16.001Z" fill="#384248"></path></svg>