<?xml version="1.0" encoding="UTF-8"?>
<svg version="1.1" viewBox="0 0 24 24" xmlns="http://www.w3.org/2000/svg" xmlns:xlink="http://www.w3.org/1999/xlink">
    <!--Generated by IJSVG (https://github.com/curthard89/IJSVG)-->
    <g fill="#000000">
        <path d="M22.947,19.257c-0.735,-1.469 -3.241,-2.391 -6.71,-3.667c-0.402,-0.147 -0.815,-0.3 -1.237,-0.457v-2.409c0.439,-0.373 1.378,-1.346 1.489,-2.934c0.227,-0.192 0.405,-0.523 0.509,-0.962c0.167,-0.706 0.083,-1.542 -0.416,-2.039c0.027,-0.068 0.059,-0.146 0.093,-0.233c0.383,-0.966 1.097,-2.764 0.815,-4.175c-0.331,-1.656 -2.667,-2.296 -4.568,-2.342c-1.654,-0.039 -3.652,0.331 -4.266,1.46c-0.597,0.067 -1.058,0.314 -1.372,0.737c-0.868,1.172 -0.238,3.252 0.101,4.369c0.018,0.062 0.035,0.118 0.051,0.167c-0.515,0.494 -0.603,1.343 -0.434,2.057c0.104,0.438 0.282,0.77 0.509,0.962c0.111,1.588 1.05,2.561 1.489,2.934v2.409c-0.423,0.158 -0.836,0.31 -1.239,0.458c-3.468,1.275 -5.975,2.196 -6.708,3.666c-1.041,2.08 -1.053,4.19 -1.053,4.279c0,0.276 0.224,0.5 0.5,0.5h23c0.276,0 0.5,-0.224 0.5,-0.5c0,-0.089 -0.012,-2.199 -1.053,-4.28Zm-21.917,3.78c0.065,-0.702 0.271,-2.039 0.917,-3.333c0.557,-1.114 3.153,-2.069 6.159,-3.173c0.507,-0.187 1.032,-0.38 1.57,-0.582c0.195,-0.074 0.324,-0.26 0.324,-0.469v-3c0,-0.167 -0.083,-0.323 -0.223,-0.416c-0.012,-0.008 -1.277,-0.871 -1.277,-2.584c0,-0.231 -0.156,-0.425 -0.369,-0.483c-0.104,-0.145 -0.258,-0.614 -0.193,-1.064c0.037,-0.259 0.133,-0.429 0.286,-0.505c0.169,-0.085 0.276,-0.258 0.276,-0.448c0,-0.136 -0.041,-0.277 -0.158,-0.665c-0.247,-0.812 -0.823,-2.716 -0.255,-3.483c0.176,-0.236 0.475,-0.352 0.913,-0.352c0.229,0 0.429,-0.156 0.485,-0.379c0.137,-0.546 1.478,-1.09 3.414,-1.062c1.955,0.047 3.439,0.679 3.611,1.539c0.224,1.12 -0.418,2.74 -0.764,3.61c-0.174,0.44 -0.246,0.621 -0.246,0.792c0,0.189 0.107,0.362 0.276,0.447c0.152,0.076 0.249,0.246 0.286,0.505c0.065,0.45 -0.089,0.919 -0.193,1.065c-0.213,0.058 -0.369,0.252 -0.369,0.483c0,1.693 -1.227,2.55 -1.277,2.584c-0.14,0.093 -0.223,0.249 -0.223,0.416v3c0,0.209 0.129,0.395 0.324,0.468c0.538,0.202 1.062,0.394 1.568,0.581c3.006,1.105 5.603,2.06 6.16,3.175c0.648,1.294 0.853,2.631 0.918,3.333h-21.94Z" transform="translate(0, -0.037)"></path>
    </g>
    <path fill="none" d="M0,0h24v24h-24Z"></path>
</svg>