<?xml version="1.0" encoding="UTF-8"?><svg width="500" height="500" version="1.1" viewBox="0 0 500 500" xmlns="http://www.w3.org/2000/svg" xmlns:xlink="http://www.w3.org/1999/xlink"><!--Generated by IJSVG (https://github.com/iconjar/IJSVG)--><g transform="scale(20.8333)"><path fill="none" d="M0,0h24v24h-24Z"></path><path fill="#4A4A4A" d="M8,22c-3.309,0 -6,-2.691 -6,-6c0,-2.706 1.801,-4.996 4.266,-5.742c-0.15,-0.645 -0.235,-1.312 -0.252,-1.997c-3.452,0.886 -6.014,4.015 -6.014,7.739c0,4.411 3.589,8 8,8c3.725,0 6.854,-2.562 7.74,-6.013c-0.686,-0.018 -1.354,-0.104 -1.998,-0.252c-0.746,2.465 -3.036,4.265 -5.742,4.265Z"></path><path fill="#4A4A4A" d="M17,3h-2v1.05c-1.14,0.232 -2,1.242 -2,2.45c0,1.378 1.122,2.5 2.5,2.5h1c0.276,0 0.5,0.224 0.5,0.5c0,0.276 -0.224,0.5 -0.5,0.5h-3.5v2h2v1h2v-1.05c1.14,-0.232 2,-1.242 2,-2.45c0,-1.378 -1.121,-2.5 -2.5,-2.5h-1c-0.275,0 -0.5,-0.224 -0.5,-0.5c0,-0.276 0.225,-0.5 0.5,-0.5h3.5v-2h-2v-1Z"></path><path fill="#4A4A4A" d="M16,0c-4.411,0 -8,3.59 -8,8c0,4.411 3.589,8 8,8c4.411,0 8,-3.589 8,-8c0,-4.41 -3.589,-8 -8,-8Zm0,14c-3.309,0 -6,-2.691 -6,-6c0,-3.308 2.691,-6 6,-6c3.309,0 6,2.692 6,6c0,3.309 -2.691,6 -6,6Z"></path><path fill="#4A4A4A" d="M7.5,14h0.514c-0.445,-0.591 -0.828,-1.231 -1.135,-1.914c-1.077,0.279 -1.879,1.25 -1.879,2.414c0,1.378 1.122,2.5 2.5,2.5h1c0.276,0 0.5,0.224 0.5,0.5c0,0.276 -0.224,0.5 -0.5,0.5h-3.5v2h2v1h2v-1.05c1.14,-0.232 2,-1.242 2,-2.45c0,-0.343 -0.069,-0.669 -0.195,-0.967c-0.693,-0.423 -1.335,-0.919 -1.905,-1.492c-0.13,-0.022 -0.262,-0.041 -0.4,-0.041h-1c-0.275,0 -0.5,-0.224 -0.5,-0.5c0,-0.276 0.225,-0.5 0.5,-0.5Z"></path></g></svg>