<?xml version="1.0" encoding="utf-8"?>
<!-- Svg Vector Icons : http://www.onlinewebfonts.com/icon -->
<!DOCTYPE svg PUBLIC "-//W3C//DTD SVG 1.1//EN" "http://www.w3.org/Graphics/SVG/1.1/DTD/svg11.dtd">
<svg version="1.1" xmlns="http://www.w3.org/2000/svg" xmlns:xlink="http://www.w3.org/1999/xlink" x="0px" y="0px" viewBox="0 0 1000 1000" enable-background="new 0 0 1000 1000" xml:space="preserve">
<metadata> Svg Vector Icons : http://www.onlinewebfonts.com/icon </metadata>
<g><path d="M442,854c-11.8-16.2-23.5-32.3-36.2-49.7c-55.9,21.8-71.5,12.8-78.2-49.5c-43.8,11.9-72.7,14-79.8-59c-9.6,2.1-20.2,7.9-28.6,5.6c-15.3-4.1-35-9.2-42.3-20.7c-7.3-11.4-8.6-38.1-0.6-46c41.5-40.9,30.1-74-5.6-110.3c-7.6-7.7-3.7-26.8-5.2-40.6c3.6-1.1,7.2-2.2,10.8-3.3c15.3,18.8,29.4,38.8,46.4,56c8.8,8.9,22.3,17.5,34.2,18.3c30,2,43.9,17.3,44.5,45.2c0.4,20.4,9.4,25.3,28.3,30c14.7,3.7,31.3,18.4,37.5,32.4c8.3,19,17.8,27.3,37.9,31.8c13.1,3,24.5,16.3,35.3,26.5c10.5,9.9,18.3,22.8,28.9,32.5c11.5,10.5,24.5,19.6,37.7,28.1c9.8,6.3,20.6,14.1,31.4,14.8c8.5,0.6,20.4-6.8,25.4-14.3c2.8-4.2-3.3-18.3-9.2-23.5c-20.4-17.6-43.1-32.5-63.6-49.9c-5.4-4.6-6.1-14.7-8.9-22.3c8.2,0.4,18.5-2.1,24.4,1.8c37.4,24.8,74.1,50.9,110.7,77c17.1,12.2,34.8,19.8,49.6-0.6c14.9-20.5,5.3-37-13.6-50.4c-38.3-27.2-76.7-54.3-113.8-83c-7.4-5.7-9.5-18.4-14.1-27.8c9.7,1.7,21.2,0.6,28.7,5.6c43.9,29.6,86.8,60.6,130.1,91.2c4.9,3.5,9.6,7.2,14.7,10.4c15.8,10,32.1,14,45-3.6c13.1-18,7.5-34-9.5-46.4c-50.8-37.2-101.6-74.3-152.5-111.4c-5.6-4.1-12.6-7.3-16.5-12.8c-3.4-4.8-3.2-12.1-4.7-18.4c5.6-1.2,11.9-4.8,16.6-3.2c8.3,2.7,15.9,8,23.2,13.1c51.4,36.4,102.8,72.7,153.8,109.6c19.9,14.4,39.2,21.4,58.2,0c16.3-18.3,13.5-39.4-9.7-59.7C717.6,502.8,632.7,428.4,547,354.9c-34.2-29.3-82.7-13.7-95,29.9c-11.5,40.9-35.1,70.1-76.5,80c-15,3.6-33.5-0.7-48.4-6.4c-7.1-2.7-14.5-18-13.3-26.3c4.6-31.1,12.1-61.9,19.9-92.5c4.6-18,11.6-35.4,19-57.3c-29.8,0-57.1,0-85.6,0c3.1-30.6,16.8-41.6,43.9-39c19.8,1.9,40.2,2.4,59.9-0.1c30.1-3.9,60.9-7.4,89.3-17.3c49.4-17.2,97.5-15.8,147-3.2c32.7,8.3,66.2,13.6,98.9,22.1c9,2.3,19.8,9.3,23.8,17.2c39.2,78.6,77.2,157.8,115,237c3.2,6.6,6.2,17.4,3.1,22.2c-16.6,26-9.5,49.5,0.8,75.7c12.5,31.5-7,67.3-41.5,77.4c-17.8,5.2-24.9,13.6-29.3,30.7c-9.4,36.1-39.5,43.9-71.3,46c-20.6,52.9-40.8,62.1-95,46.6c-6.8-2-16.4,4-24.2,7.3c-17.7,7.4-38.1,25.2-52.1,21.1c-34.2-10.2-51.2,6.9-69.4,28.2C458,854,450,854,442,854z"/><path d="M178,146c19.1,10.5,37.9,21.3,57.3,31.3c16.1,8.3,21,19.2,12.7,36.3c-44.8,93.1-89.2,186.3-133.8,279.6c-8.6,18.1-22.6,21.7-39.4,13c-22-11.4-43.3-24-64.9-36.1c0-6,0-12,0-18c26.8-51.6,53.8-103.1,80.2-155c25.6-50.2,50.6-100.7,75.8-151.1C170,146,174,146,178,146z"/><path d="M832.1,146c9.9,15.9,21,31.2,29.3,47.9c40.8,81.1,80.1,162.8,121.6,243.5c13.3,25.9,8,39.2-18,51c-63.1,28.7-62.8,29.6-93.7-33.4c-38.2-77.9-75.9-156-114.7-233.6c-11.1-22.2-9.3-36.9,15.2-47.6c16.9-7.4,32.2-18.4,48.2-27.8C824.1,146,828.1,146,832.1,146z"/></g>
</svg>