<?xml version="1.0" encoding="UTF-8"?><svg version="1.1" viewBox="0 0 24 24" xmlns="http://www.w3.org/2000/svg" xmlns:xlink="http://www.w3.org/1999/xlink"><!--Generated by IJSVG (https://github.com/iconjar/IJSVG)--><path d="M0,0h24v24h-24Z" fill="none"></path><path fill="#384248" d="M21.406,6.087l-9,-4c-0.259,-0.115 -0.554,-0.115 -0.813,0l-9,4c-0.361,0.161 -0.593,0.519 -0.593,0.913v10c0,0.395 0.232,0.753 0.594,0.914l9,4c0.129,0.058 0.267,0.086 0.406,0.086c0.139,0 0.277,-0.029 0.406,-0.086l9,-4c0.362,-0.16 0.594,-0.518 0.594,-0.914v-10c0,-0.394 -0.232,-0.752 -0.594,-0.913Zm-9.406,-1.992l6.538,2.905l-1.788,0.795l-6.538,-2.905l1.788,-0.795Zm0,5.812l-6.538,-2.907l2.288,-1.017l6.538,2.906l-2.288,1.018Zm-8,-1.367l7,3.111v7.812l-7,-3.111v-7.812Zm9,10.922v-7.812l7,-3.111v7.811l-7,3.112Z"></path></svg>