<svg id="svg" version="1.1" xmlns="http://www.w3.org/2000/svg" xmlns:xlink="http://www.w3.org/1999/xlink" width="400" height="400" viewBox="0, 0, 400,400"><g id="svgg"><path id="path0" d="M71.718 0.760 C 71.388 1.288,70.382 1.674,68.417 2.025 C 66.862 2.303,65.390 2.771,65.146 3.065 C 64.902 3.359,64.493 3.600,64.238 3.600 C 63.204 3.600,57.200 7.913,57.200 8.655 C 57.200 8.933,56.954 9.304,56.654 9.480 C 56.354 9.656,55.826 10.353,55.481 11.029 C 55.135 11.705,54.571 12.492,54.226 12.778 C 53.882 13.064,53.600 13.577,53.600 13.917 C 53.600 14.258,53.311 14.856,52.958 15.246 C 52.605 15.636,52.051 17.360,51.727 19.078 C 51.402 20.795,50.982 23.010,50.792 24.000 C 50.342 26.353,50.342 373.647,50.792 376.000 C 52.048 382.559,52.444 384.016,53.461 385.834 C 55.269 389.064,56.450 390.800,56.840 390.800 C 57.038 390.800,57.200 391.040,57.200 391.333 C 57.200 391.839,60.055 394.400,60.619 394.400 C 60.765 394.400,61.419 394.850,62.073 395.400 C 62.727 395.950,63.505 396.400,63.802 396.400 C 64.100 396.400,64.622 396.679,64.964 397.021 C 65.305 397.363,66.696 397.821,68.053 398.040 C 70.686 398.463,72.000 398.988,72.000 399.614 C 72.000 399.861,118.117 400.000,200.200 400.000 C 308.992 400.000,328.400 399.916,328.400 399.447 C 328.400 398.920,331.086 398.007,332.677 397.994 C 333.075 397.991,333.850 397.730,334.400 397.414 C 334.950 397.098,336.075 396.542,336.900 396.177 C 337.725 395.812,338.400 395.365,338.400 395.184 C 338.400 395.002,338.740 394.746,339.155 394.614 C 339.571 394.482,340.370 393.949,340.931 393.429 C 341.493 392.908,342.101 392.419,342.284 392.341 C 342.467 392.264,343.292 391.173,344.118 389.918 C 344.944 388.662,345.795 387.527,346.010 387.394 C 346.224 387.261,346.400 386.863,346.400 386.508 C 346.400 386.153,346.692 385.540,347.049 385.146 C 347.406 384.751,348.069 382.847,348.522 380.914 C 349.637 376.162,350.106 111.857,349.002 110.282 C 348.671 109.809,348.400 109.043,348.400 108.580 C 348.400 107.516,346.178 104.117,344.623 102.800 C 343.973 102.250,342.892 101.192,342.221 100.450 C 340.042 98.040,338.327 96.400,337.987 96.400 C 337.804 96.400,337.543 96.049,337.406 95.620 C 337.270 95.192,336.808 94.730,336.380 94.594 C 335.951 94.457,335.600 94.158,335.600 93.928 C 335.600 93.699,334.581 92.586,333.336 91.455 C 332.090 90.325,330.515 88.787,329.836 88.039 C 327.710 85.697,324.272 82.400,323.956 82.400 C 323.790 82.400,323.543 82.049,323.406 81.620 C 323.270 81.192,322.817 80.733,322.400 80.600 C 321.983 80.467,321.533 80.017,321.400 79.600 C 321.267 79.183,320.808 78.730,320.380 78.594 C 319.951 78.457,319.600 78.095,319.600 77.787 C 319.600 77.480,319.198 77.013,318.708 76.751 C 318.217 76.488,317.518 75.895,317.155 75.433 C 316.359 74.422,313.853 71.868,311.970 70.149 C 311.217 69.462,309.669 67.932,308.530 66.749 C 307.392 65.567,305.817 64.010,305.030 63.290 C 304.244 62.569,303.600 61.896,303.600 61.795 C 303.600 61.693,302.672 60.753,301.538 59.705 C 300.403 58.657,298.828 57.122,298.038 56.293 C 296.216 54.384,294.406 52.575,291.500 49.759 C 290.235 48.533,289.200 47.378,289.200 47.192 C 289.200 47.006,288.840 46.740,288.400 46.600 C 287.960 46.460,287.600 46.088,287.600 45.773 C 287.600 45.458,287.435 45.200,287.232 45.200 C 286.881 45.200,286.073 44.406,283.059 41.100 C 282.307 40.275,281.585 39.600,281.453 39.600 C 281.229 39.600,278.994 37.320,275.864 33.900 C 275.110 33.075,274.395 32.400,274.277 32.400 C 274.046 32.400,271.600 30.028,271.600 29.804 C 271.600 29.637,267.795 25.860,265.844 24.090 C 265.050 23.370,264.400 22.617,264.400 22.417 C 264.400 22.217,264.040 21.940,263.600 21.800 C 263.160 21.660,262.800 21.295,262.800 20.987 C 262.800 20.680,262.416 20.222,261.946 19.971 C 260.951 19.439,257.200 15.649,257.200 15.176 C 257.200 14.999,256.840 14.740,256.400 14.600 C 255.960 14.460,255.600 14.088,255.600 13.773 C 255.600 13.458,255.435 13.200,255.232 13.200 C 255.030 13.200,254.265 12.555,253.532 11.766 C 247.964 5.773,244.214 2.564,242.081 1.967 C 240.956 1.652,240.219 1.193,240.098 0.733 C 239.792 -0.438,72.449 -0.411,71.718 0.760 M224.960 24.785 L 225.971 25.169 226.086 65.685 C 226.189 102.426,226.261 106.293,226.855 107.200 C 227.216 107.750,227.736 108.910,228.012 109.777 C 228.288 110.645,228.678 111.545,228.880 111.777 C 229.211 112.158,230.333 113.853,231.400 115.585 C 232.123 116.757,236.971 120.800,237.655 120.800 C 237.845 120.800,238.360 121.160,238.800 121.600 C 239.240 122.040,240.098 122.400,240.706 122.400 C 241.314 122.400,242.529 122.805,243.406 123.300 L 245.000 124.200 285.200 124.400 L 325.400 124.600 325.400 250.000 L 325.400 375.400 200.442 375.501 C 108.400 375.575,75.341 375.483,74.942 375.152 C 73.992 374.363,74.149 25.386,75.100 24.832 C 76.037 24.287,223.527 24.240,224.960 24.785 M251.900 43.596 C 252.615 44.032,253.200 44.661,253.200 44.994 C 253.200 45.327,253.384 45.600,253.609 45.600 C 254.093 45.600,258.400 49.971,258.400 50.462 C 258.400 50.648,258.562 50.800,258.760 50.800 C 259.105 50.800,262.407 53.972,265.051 56.842 C 265.738 57.589,267.268 59.140,268.451 60.289 C 269.633 61.438,270.780 62.565,271.000 62.794 C 271.220 63.023,272.840 64.639,274.600 66.385 C 276.360 68.130,277.980 69.750,278.200 69.983 C 278.420 70.217,279.320 71.096,280.200 71.937 C 281.080 72.778,282.725 74.441,283.856 75.633 C 284.986 76.825,286.921 78.748,288.156 79.907 C 289.390 81.066,290.400 82.191,290.400 82.407 C 290.400 82.623,290.549 82.800,290.732 82.800 C 290.915 82.800,292.490 84.255,294.232 86.034 C 295.974 87.813,297.940 89.784,298.600 90.414 C 308.048 99.436,308.718 100.396,305.950 100.950 C 303.606 101.419,251.718 101.237,250.663 100.756 C 248.804 99.909,248.800 99.851,248.800 71.607 C 248.800 40.959,248.723 41.658,251.900 43.596 M146.800 51.421 C 143.760 52.410,142.191 53.571,140.000 56.453 C 139.017 57.745,138.997 57.925,138.800 66.852 C 138.690 71.848,138.510 76.004,138.400 76.088 C 138.290 76.172,137.617 76.713,136.904 77.291 C 136.030 78.000,134.895 78.431,133.416 78.615 C 132.210 78.766,131.018 79.138,130.765 79.442 C 130.513 79.746,129.581 80.190,128.693 80.429 C 127.806 80.668,126.831 81.112,126.527 81.416 C 126.223 81.720,125.350 82.086,124.587 82.229 C 123.824 82.372,123.200 82.645,123.200 82.836 C 123.200 83.027,122.456 83.592,121.548 84.092 C 120.639 84.591,119.444 85.247,118.892 85.548 C 117.630 86.239,108.800 94.917,108.800 95.468 C 108.800 95.692,108.440 96.202,108.000 96.600 C 107.560 96.998,107.200 97.521,107.200 97.762 C 107.199 98.003,106.749 98.723,106.200 99.362 C 105.650 100.001,105.200 100.919,105.200 101.400 C 105.200 101.882,104.862 102.582,104.448 102.956 C 104.035 103.331,103.576 104.394,103.428 105.318 C 103.280 106.243,102.871 107.440,102.519 107.979 C 100.779 110.638,100.970 127.281,102.780 130.657 C 103.231 131.499,103.600 132.733,103.600 133.398 C 103.600 134.155,103.886 134.786,104.364 135.085 C 104.784 135.347,105.249 136.065,105.397 136.681 C 105.545 137.296,106.281 138.610,107.033 139.600 C 107.785 140.590,108.619 141.850,108.886 142.400 C 109.408 143.475,115.962 150.264,117.161 150.972 C 118.916 152.009,121.154 153.602,121.390 153.984 C 121.531 154.213,121.899 154.400,122.206 154.400 C 122.513 154.400,123.428 154.850,124.238 155.400 C 125.049 155.950,125.973 156.400,126.293 156.400 C 126.612 156.400,127.331 156.760,127.891 157.200 C 128.450 157.640,129.291 158.000,129.760 158.000 C 130.228 158.000,131.239 158.333,132.006 158.740 C 132.773 159.148,134.365 159.607,135.544 159.760 C 136.723 159.914,138.149 160.341,138.712 160.710 C 139.544 161.255,141.165 161.423,147.368 161.604 C 151.825 161.734,155.334 162.014,155.802 162.275 C 156.243 162.522,157.668 162.920,158.969 163.160 C 160.270 163.401,161.633 163.868,161.999 164.199 C 162.364 164.529,162.950 164.800,163.301 164.800 C 163.652 164.800,164.447 165.210,165.069 165.710 C 165.691 166.211,166.693 166.870,167.295 167.175 C 168.855 167.965,172.800 172.043,172.800 172.865 C 172.800 173.244,173.153 173.802,173.583 174.103 C 174.058 174.436,174.476 175.352,174.643 176.426 C 174.794 177.402,175.162 178.555,175.459 178.989 C 176.163 180.016,176.148 182.037,175.422 183.686 C 175.104 184.409,174.741 185.650,174.614 186.445 C 174.488 187.240,174.028 188.213,173.592 188.607 C 173.156 189.001,172.800 189.524,172.800 189.769 C 172.800 190.379,169.243 194.400,168.703 194.400 C 168.463 194.400,167.982 194.669,167.634 194.998 C 165.922 196.613,164.402 197.600,163.626 197.600 C 163.154 197.600,162.262 197.974,161.643 198.431 C 160.957 198.939,159.505 199.389,157.919 199.585 C 156.490 199.762,154.905 200.130,154.397 200.401 C 153.197 201.044,146.967 201.029,145.400 200.380 C 144.740 200.107,143.154 199.748,141.877 199.582 C 140.599 199.417,139.249 199.007,138.877 198.672 C 138.504 198.337,137.660 197.932,137.000 197.774 C 136.340 197.615,135.530 197.237,135.200 196.933 C 134.273 196.079,131.609 194.400,131.182 194.400 C 130.972 194.400,130.396 193.995,129.901 193.500 C 128.545 192.142,120.692 191.906,119.224 193.179 C 118.690 193.642,117.879 194.116,117.423 194.230 C 114.017 195.085,111.440 203.798,113.409 207.800 C 113.950 208.900,114.394 209.985,114.396 210.211 C 114.398 210.437,114.738 210.912,115.152 211.266 C 115.565 211.620,115.970 212.068,116.052 212.263 C 116.133 212.457,117.280 213.324,118.600 214.189 C 119.920 215.054,121.238 215.995,121.529 216.281 C 121.819 216.566,122.241 216.800,122.465 216.800 C 122.690 216.800,123.331 217.160,123.891 217.600 C 124.450 218.040,125.216 218.400,125.593 218.400 C 125.969 218.400,126.688 218.756,127.190 219.192 C 127.692 219.627,128.755 220.097,129.551 220.236 C 130.348 220.376,131.404 220.743,131.897 221.052 C 132.390 221.361,133.640 221.730,134.674 221.872 C 135.999 222.054,136.886 222.469,137.677 223.279 L 138.800 224.428 138.810 232.314 C 138.822 242.509,138.966 243.093,142.171 245.954 C 142.815 246.530,143.715 247.360,144.171 247.800 C 144.906 248.510,145.542 248.600,149.800 248.600 L 154.600 248.600 156.580 247.180 C 157.670 246.400,159.200 244.870,159.980 243.780 L 161.400 241.800 161.600 232.664 C 161.824 222.443,161.963 222.000,164.950 222.000 C 165.644 222.000,166.839 221.668,167.606 221.262 C 168.373 220.857,169.600 220.408,170.332 220.266 C 171.065 220.123,172.125 219.645,172.686 219.204 C 173.248 218.762,174.106 218.400,174.592 218.400 C 175.078 218.400,175.798 218.045,176.191 217.610 C 176.584 217.176,177.287 216.701,177.753 216.555 C 178.490 216.325,179.460 215.657,181.519 213.960 C 181.805 213.725,182.451 213.318,182.956 213.057 C 185.015 211.989,193.600 202.316,193.600 201.065 C 193.600 200.753,193.861 200.282,194.180 200.017 C 194.498 199.752,194.971 198.875,195.230 198.068 C 195.489 197.261,195.929 196.330,196.207 196.000 C 196.485 195.670,196.842 194.590,196.999 193.600 C 197.156 192.610,197.626 191.239,198.042 190.553 C 199.065 188.869,199.200 173.549,198.204 172.127 C 197.876 171.659,197.406 170.314,197.159 169.138 C 196.912 167.962,196.483 166.730,196.206 166.400 C 195.928 166.070,195.489 165.139,195.230 164.332 C 194.971 163.525,194.498 162.648,194.180 162.383 C 193.861 162.118,193.600 161.727,193.600 161.513 C 193.600 161.299,193.195 160.559,192.700 159.870 C 191.774 158.580,191.565 158.264,190.200 156.083 C 189.760 155.380,189.175 154.804,188.900 154.803 C 188.625 154.801,188.400 154.625,188.400 154.410 C 188.400 154.196,187.753 153.431,186.962 152.710 C 186.170 151.990,185.148 150.995,184.689 150.500 C 184.231 150.005,183.618 149.600,183.328 149.600 C 183.038 149.600,182.800 149.424,182.800 149.208 C 182.800 148.993,182.080 148.449,181.200 148.000 C 180.320 147.551,179.600 147.021,179.600 146.823 C 179.600 146.624,178.970 146.254,178.200 146.000 C 177.430 145.746,176.800 145.386,176.800 145.201 C 176.800 145.015,176.279 144.749,175.641 144.609 C 175.004 144.469,174.178 144.018,173.806 143.606 C 173.433 143.195,172.430 142.740,171.576 142.596 C 170.722 142.452,169.613 142.016,169.112 141.627 C 168.610 141.239,167.265 140.814,166.122 140.682 C 164.978 140.550,163.486 140.154,162.804 139.802 C 161.904 139.337,159.672 139.069,154.637 138.824 C 150.826 138.638,147.369 138.307,146.954 138.089 C 146.539 137.870,145.030 137.566,143.600 137.412 C 142.170 137.259,140.363 136.811,139.584 136.417 C 138.805 136.023,137.591 135.574,136.886 135.419 C 136.182 135.264,135.467 134.892,135.299 134.592 C 135.131 134.292,134.585 133.895,134.085 133.710 C 132.775 133.225,128.563 129.577,127.954 128.400 C 127.669 127.850,127.135 127.040,126.767 126.600 C 126.400 126.160,125.883 125.128,125.620 124.306 C 125.357 123.484,124.975 122.708,124.771 122.582 C 124.132 122.187,124.320 115.458,124.994 114.576 C 125.320 114.149,125.765 113.168,125.983 112.395 C 126.312 111.230,128.357 108.472,129.939 107.060 C 130.149 106.873,130.742 106.333,131.257 105.860 C 133.627 103.684,139.180 100.800,141.000 100.800 C 141.625 100.800,142.482 100.488,142.904 100.106 C 143.999 99.115,155.708 99.058,157.217 100.037 C 157.758 100.387,158.897 100.784,159.750 100.919 C 160.602 101.055,161.592 101.421,161.950 101.732 C 162.307 102.044,163.275 102.516,164.100 102.780 C 164.925 103.045,165.600 103.426,165.600 103.626 C 165.600 103.826,166.185 104.234,166.900 104.533 C 167.615 104.832,168.447 105.374,168.749 105.738 C 169.051 106.102,169.591 106.401,169.949 106.403 C 170.307 106.404,171.140 106.763,171.800 107.200 C 173.522 108.340,178.441 108.340,179.891 107.200 C 180.450 106.760,181.204 106.400,181.567 106.400 C 182.590 106.400,186.400 102.267,186.402 101.153 C 186.404 100.629,186.692 99.660,187.042 99.000 C 187.732 97.701,187.859 94.598,187.253 93.858 C 187.047 93.606,186.671 92.626,186.418 91.679 C 186.165 90.732,185.652 89.616,185.279 89.199 C 183.625 87.350,182.096 86.000,181.655 86.000 C 181.465 86.000,180.635 85.463,179.809 84.807 C 178.984 84.152,177.384 83.150,176.254 82.582 C 175.124 82.014,173.750 81.293,173.200 80.980 C 172.650 80.668,171.819 80.409,171.354 80.406 C 170.889 80.403,170.063 80.050,169.519 79.622 C 168.976 79.195,167.590 78.720,166.439 78.567 C 165.288 78.415,164.130 78.073,163.865 77.808 C 163.600 77.543,162.992 77.117,162.513 76.860 C 161.663 76.406,161.639 76.172,161.521 67.285 L 161.400 58.177 159.800 56.207 C 157.426 53.284,155.962 52.087,154.400 51.793 C 153.630 51.647,152.820 51.385,152.600 51.210 C 151.605 50.419,149.661 50.490,146.800 51.421 M232.800 176.728 C 230.897 177.591,227.639 180.504,227.612 181.369 C 227.605 181.571,227.285 182.085,226.900 182.511 C 225.623 183.922,225.927 191.353,227.345 193.400 C 228.902 195.647,230.330 197.200,230.840 197.200 C 231.079 197.200,231.731 197.560,232.291 198.000 C 233.287 198.784,233.914 198.800,262.698 198.800 L 292.089 198.800 294.131 197.100 C 297.905 193.958,298.314 193.320,298.619 190.102 C 299.243 183.514,298.189 180.921,293.413 177.300 L 292.226 176.400 262.813 176.428 C 246.636 176.444,233.130 176.579,232.800 176.728 M234.219 226.286 C 233.570 226.386,232.601 226.813,232.065 227.234 C 231.530 227.655,230.913 228.000,230.693 228.000 C 230.165 228.000,227.600 230.734,227.600 231.297 C 227.600 231.539,227.285 232.085,226.900 232.511 C 224.579 235.076,226.482 243.817,229.919 246.377 C 230.513 246.820,231.328 247.501,231.728 247.891 C 232.413 248.557,234.289 248.600,262.528 248.600 L 292.600 248.600 293.764 247.600 C 298.507 243.525,299.251 241.616,298.643 235.078 C 298.389 232.340,295.768 228.000,294.369 228.000 C 294.166 228.000,293.595 227.595,293.100 227.100 L 292.200 226.200 263.800 226.151 C 248.180 226.124,234.869 226.185,234.219 226.286 M107.891 276.800 C 107.331 277.240,106.649 277.600,106.375 277.600 C 102.392 277.600,99.476 289.960,102.587 293.657 C 103.114 294.283,103.659 295.157,103.799 295.598 C 103.939 296.039,104.267 296.400,104.527 296.400 C 104.787 296.401,105.508 296.838,106.129 297.372 C 107.871 298.870,106.299 298.848,202.218 298.720 C 291.492 298.601,292.245 298.593,293.371 297.800 C 293.995 297.360,294.861 296.794,295.295 296.542 C 295.729 296.290,296.290 295.729,296.542 295.295 C 296.794 294.861,297.360 293.995,297.800 293.370 C 298.494 292.384,298.600 291.589,298.600 287.360 L 298.600 282.485 296.555 280.143 C 295.431 278.854,294.172 277.733,293.757 277.652 C 293.343 277.570,292.573 277.165,292.048 276.752 C 290.496 275.531,109.443 275.579,107.891 276.800 M110.200 325.962 C 109.760 326.117,108.731 326.549,107.913 326.922 C 107.095 327.295,106.287 327.600,106.118 327.600 C 105.077 327.600,101.987 331.935,101.559 333.996 C 100.871 337.303,101.361 341.812,102.602 343.603 C 103.151 344.395,103.600 345.263,103.600 345.531 C 103.600 345.800,104.050 346.191,104.600 346.400 C 105.150 346.609,105.600 346.947,105.600 347.150 C 105.600 347.353,107.051 347.988,108.825 348.560 L 112.049 349.600 200.545 349.600 C 251.645 349.600,289.201 349.450,289.420 349.244 C 289.629 349.049,290.815 348.599,292.057 348.246 C 293.298 347.892,294.417 347.332,294.544 347.001 C 294.671 346.671,295.055 346.400,295.397 346.400 C 295.740 346.400,296.194 345.995,296.406 345.500 C 296.619 345.005,297.200 344.092,297.696 343.471 C 300.107 340.458,298.786 332.024,295.372 328.624 C 294.598 327.854,294.032 327.575,290.400 326.175 C 288.875 325.587,111.857 325.378,110.200 325.962 " stroke="none" fill="#050505" fill-rule="evenodd"></path><path id="path1" d="M0.000 200.000 L 0.000 400.000 33.833 400.000 C 60.514 400.000,67.632 399.896,67.502 399.506 C 67.411 399.234,66.550 398.877,65.588 398.713 C 64.627 398.549,63.698 398.161,63.525 397.852 C 63.352 397.542,62.720 397.166,62.121 397.016 C 61.522 396.866,60.665 396.391,60.216 395.961 C 54.435 390.425,53.747 389.650,52.980 387.813 C 52.686 387.111,52.188 386.322,51.873 386.061 C 51.558 385.799,51.178 384.823,51.030 383.892 C 50.881 382.962,50.454 381.750,50.080 381.200 C 49.016 379.636,49.027 20.734,50.091 19.111 C 50.471 18.531,50.903 17.296,51.052 16.367 C 51.200 15.438,51.654 14.346,52.061 13.939 C 52.467 13.533,52.800 12.955,52.800 12.655 C 52.800 12.355,53.340 11.431,54.000 10.600 C 54.660 9.769,55.200 8.935,55.200 8.745 C 55.200 8.555,55.470 8.400,55.800 8.400 C 56.130 8.400,56.400 8.161,56.400 7.870 C 56.400 7.578,57.051 6.813,57.848 6.170 C 58.644 5.526,59.744 4.601,60.292 4.113 C 60.841 3.625,61.674 3.109,62.145 2.965 C 62.615 2.822,63.279 2.461,63.620 2.163 C 63.961 1.865,64.938 1.476,65.791 1.299 C 66.643 1.121,67.414 0.757,67.504 0.488 C 67.631 0.106,60.286 -0.000,33.833 -0.000 L 0.000 0.000 0.000 200.000 M243.200 0.409 C 243.200 0.633,243.692 1.038,244.292 1.309 C 245.237 1.733,347.200 103.256,347.200 103.772 C 347.200 103.877,347.650 104.414,348.200 104.964 C 348.750 105.514,349.200 106.273,349.200 106.650 C 349.200 107.028,349.515 107.685,349.900 108.111 C 350.968 109.291,350.992 379.505,349.924 381.400 C 349.552 382.060,349.143 383.252,349.016 384.049 C 348.888 384.845,348.427 385.908,347.992 386.410 C 347.556 386.912,347.200 387.550,347.200 387.827 C 347.200 388.295,346.377 389.422,344.730 391.212 C 344.362 391.612,343.861 392.313,343.616 392.770 C 343.372 393.226,343.021 393.600,342.836 393.600 C 342.652 393.600,341.726 394.309,340.778 395.175 C 339.831 396.041,338.604 396.863,338.052 397.001 C 337.501 397.140,336.839 397.541,336.582 397.892 C 336.325 398.243,335.339 398.636,334.390 398.765 C 333.441 398.894,332.590 399.225,332.499 399.500 C 332.367 399.897,339.278 400.000,366.167 400.000 L 400.000 400.000 400.000 200.000 L 400.000 0.000 321.600 0.000 C 268.503 0.000,243.200 0.132,243.200 0.409 M75.600 199.950 L 75.600 374.300 76.850 374.550 C 78.477 374.875,321.331 374.869,323.300 374.543 L 324.800 374.295 324.800 250.362 L 324.800 126.428 323.900 125.914 C 323.190 125.508,314.519 125.358,282.800 125.200 C 245.747 125.016,242.506 124.946,241.400 124.313 C 240.740 123.934,239.525 123.359,238.700 123.033 C 237.875 122.707,237.200 122.271,237.200 122.064 C 237.200 121.856,236.770 121.579,236.245 121.447 C 235.098 121.159,229.413 115.700,229.041 114.531 C 228.897 114.077,228.424 113.384,227.990 112.991 C 227.555 112.598,227.200 112.010,227.200 111.685 C 227.200 111.360,226.830 110.495,226.377 109.763 C 224.803 107.216,224.678 104.120,224.532 64.100 L 224.392 25.600 149.996 25.600 L 75.600 25.600 75.600 199.950 M250.987 45.292 C 250.880 45.571,250.839 57.770,250.896 72.400 L 251.000 99.000 278.100 99.103 C 293.005 99.159,305.200 99.124,305.200 99.023 C 305.200 98.439,251.149 44.868,250.987 45.292 M154.391 50.167 C 154.726 50.456,155.469 50.804,156.043 50.940 C 157.123 51.196,160.004 53.834,161.400 55.847 C 162.693 57.710,163.147 60.948,163.174 68.488 L 163.200 75.577 165.339 76.588 C 166.515 77.145,167.838 77.600,168.279 77.600 C 168.720 77.600,169.927 78.050,170.962 78.600 C 171.996 79.150,173.107 79.600,173.430 79.600 C 173.753 79.600,174.688 80.010,175.509 80.512 C 178.039 82.059,178.556 82.356,179.937 83.052 C 180.672 83.423,181.366 83.968,181.480 84.263 C 181.593 84.558,181.857 84.800,182.066 84.800 C 182.688 84.800,185.600 87.292,185.600 87.824 C 185.600 88.094,185.834 88.404,186.121 88.514 C 186.407 88.624,187.127 89.650,187.721 90.794 C 190.668 96.474,188.073 104.281,182.036 107.899 C 178.328 110.122,166.800 108.656,166.800 105.962 C 166.800 105.763,166.530 105.600,166.200 105.600 C 165.870 105.600,165.245 105.245,164.810 104.810 C 164.376 104.376,163.521 103.900,162.910 103.752 C 162.300 103.604,161.348 103.168,160.795 102.782 C 160.243 102.397,158.713 101.956,157.395 101.803 C 156.078 101.650,153.945 101.262,152.657 100.940 C 150.602 100.428,149.986 100.428,147.657 100.939 C 146.195 101.260,144.002 101.639,142.781 101.780 C 141.561 101.921,140.031 102.388,139.381 102.816 C 138.732 103.244,137.821 103.596,137.358 103.597 C 136.896 103.599,136.031 104.050,135.438 104.600 C 134.844 105.150,134.189 105.600,133.982 105.600 C 133.568 105.600,132.019 106.851,130.516 108.400 C 128.633 110.341,126.835 113.440,126.564 115.213 C 126.413 116.196,126.153 117.270,125.985 117.600 C 125.544 118.465,127.076 125.299,127.801 125.705 C 128.131 125.889,128.405 126.256,128.412 126.520 C 128.439 127.636,133.664 132.280,135.900 133.176 C 136.615 133.463,137.200 133.839,137.200 134.013 C 137.200 134.187,137.943 134.455,138.851 134.609 C 139.760 134.762,141.065 135.218,141.751 135.622 C 142.769 136.221,144.261 136.408,149.800 136.630 C 153.593 136.782,157.138 137.121,157.816 137.396 C 158.484 137.667,160.284 138.021,161.816 138.184 C 163.347 138.346,165.320 138.798,166.200 139.189 C 167.080 139.579,168.457 140.017,169.260 140.160 C 170.063 140.304,170.940 140.686,171.209 141.011 C 171.478 141.335,172.091 141.600,172.571 141.600 C 173.052 141.600,174.055 142.050,174.800 142.600 C 175.545 143.150,176.453 143.600,176.816 143.600 C 177.179 143.600,177.802 143.960,178.200 144.400 C 178.598 144.840,179.141 145.200,179.407 145.200 C 179.848 145.200,182.129 146.791,183.600 148.126 C 183.930 148.425,184.515 148.784,184.900 148.922 C 185.285 149.061,185.600 149.451,185.600 149.787 C 185.600 150.124,185.807 150.400,186.060 150.400 C 186.628 150.400,189.200 153.004,189.200 153.580 C 189.200 153.811,189.474 154.000,189.810 154.000 C 190.145 154.000,190.582 154.425,190.779 154.945 C 190.977 155.465,191.423 156.000,191.769 156.133 C 192.116 156.266,192.400 156.619,192.400 156.918 C 192.400 157.216,192.850 157.883,193.400 158.400 C 193.950 158.917,194.400 159.628,194.400 159.981 C 194.400 160.334,194.760 160.930,195.200 161.307 C 195.640 161.684,196.000 162.240,196.000 162.542 C 196.000 162.845,196.337 163.521,196.748 164.046 C 197.159 164.571,197.633 165.630,197.801 166.400 C 197.969 167.170,198.443 168.427,198.853 169.194 C 199.264 169.961,199.600 171.327,199.600 172.231 C 199.600 173.134,199.868 174.756,200.196 175.836 C 201.586 180.418,199.511 194.505,196.990 197.600 C 196.721 197.930,196.290 198.859,196.031 199.665 C 195.773 200.470,195.300 201.230,194.981 201.352 C 194.661 201.475,194.400 201.909,194.400 202.318 C 194.400 202.726,193.950 203.483,193.400 204.000 C 192.850 204.517,192.400 205.114,192.400 205.328 C 192.400 205.541,192.026 206.095,191.568 206.558 C 191.110 207.021,189.840 208.361,188.745 209.536 C 185.702 212.802,179.618 217.600,178.521 217.600 C 178.282 217.600,177.986 217.860,177.864 218.178 C 177.742 218.496,177.014 218.874,176.247 219.018 C 175.480 219.161,174.543 219.621,174.164 220.040 C 173.786 220.458,173.186 220.800,172.832 220.800 C 172.478 220.800,171.503 221.167,170.666 221.616 C 169.829 222.064,168.222 222.606,167.093 222.820 C 163.369 223.527,163.275 223.749,163.069 232.347 C 162.824 242.564,162.587 243.445,159.200 246.723 C 156.834 249.013,156.584 249.183,155.172 249.466 C 154.419 249.616,153.565 249.978,153.273 250.270 C 152.562 250.981,148.111 250.957,146.727 250.235 C 146.137 249.927,145.105 249.555,144.434 249.407 C 143.060 249.106,138.408 244.670,138.386 243.641 C 138.379 243.288,138.025 242.280,137.600 241.400 C 136.923 239.998,136.825 238.876,136.814 232.320 L 136.800 224.841 135.500 223.873 C 134.755 223.319,133.359 222.797,132.229 222.651 C 131.145 222.511,129.975 222.144,129.629 221.835 C 129.283 221.527,128.235 221.071,127.300 220.822 C 126.365 220.573,125.600 220.225,125.600 220.049 C 125.600 219.872,124.880 219.490,124.000 219.200 C 123.120 218.910,122.400 218.523,122.400 218.341 C 122.400 218.160,121.815 217.766,121.100 217.467 C 120.385 217.168,119.553 216.626,119.251 216.262 C 118.949 215.898,118.456 215.600,118.154 215.600 C 117.853 215.600,117.382 215.240,117.107 214.800 C 116.832 214.360,116.450 214.000,116.258 214.000 C 115.815 214.000,113.200 211.165,113.200 210.685 C 113.200 210.488,112.840 209.869,112.400 209.309 C 111.081 207.632,111.218 199.873,112.600 198.000 C 113.150 197.255,113.600 196.476,113.600 196.270 C 113.600 195.855,115.729 193.842,117.477 192.605 C 120.891 190.187,127.595 190.211,131.193 192.654 C 131.959 193.174,132.814 193.600,133.093 193.600 C 133.372 193.600,133.600 193.776,133.600 193.992 C 133.600 194.207,134.275 194.749,135.100 195.196 C 135.925 195.643,136.870 196.165,137.200 196.355 C 137.530 196.546,138.520 196.930,139.400 197.208 C 140.280 197.485,141.106 197.875,141.235 198.074 C 142.022 199.287,158.190 199.073,159.568 197.832 C 159.916 197.518,160.740 197.131,161.400 196.970 C 162.926 196.597,166.800 194.440,166.800 193.962 C 166.800 193.763,167.025 193.601,167.300 193.603 C 167.924 193.607,171.999 189.182,172.000 188.500 C 172.000 188.225,172.405 187.595,172.900 187.100 C 173.734 186.266,173.800 185.845,173.800 181.390 C 173.800 177.008,173.720 176.479,172.900 175.436 C 172.405 174.807,172.000 174.053,172.000 173.760 C 172.000 173.468,171.640 173.035,171.200 172.800 C 170.760 172.565,170.400 172.151,170.400 171.882 C 170.400 171.612,169.830 170.943,169.134 170.396 C 168.438 169.848,167.472 168.995,166.988 168.500 C 166.504 168.005,165.836 167.600,165.503 167.600 C 165.170 167.600,164.675 167.331,164.402 167.002 C 164.128 166.673,163.161 166.192,162.253 165.933 C 161.344 165.674,160.327 165.233,159.994 164.954 C 159.376 164.436,155.761 163.893,148.345 163.203 C 138.450 162.283,136.732 162.047,135.882 161.490 C 135.387 161.166,134.176 160.771,133.191 160.613 C 132.206 160.454,130.805 159.981,130.077 159.562 C 129.350 159.143,128.429 158.800,128.031 158.800 C 127.633 158.800,126.879 158.466,126.354 158.058 C 125.829 157.650,124.741 157.101,123.935 156.839 C 123.130 156.576,122.370 156.100,122.248 155.781 C 122.125 155.461,121.730 155.200,121.370 155.200 C 121.010 155.200,120.204 154.795,119.578 154.300 C 118.953 153.805,117.262 152.502,115.821 151.405 C 114.379 150.308,113.200 149.183,113.200 148.905 C 113.200 148.627,112.994 148.400,112.743 148.400 C 112.143 148.400,109.610 145.932,109.604 145.343 C 109.602 145.091,109.327 144.781,108.994 144.653 C 108.661 144.525,108.215 143.966,108.004 143.410 C 107.793 142.855,107.438 142.400,107.215 142.400 C 106.993 142.400,106.532 141.815,106.191 141.100 C 105.851 140.385,105.129 139.080,104.589 138.200 C 103.384 136.238,102.400 134.171,102.400 133.599 C 102.400 133.364,102.143 132.773,101.829 132.286 C 101.515 131.799,101.086 130.500,100.875 129.400 C 100.664 128.300,100.177 126.230,99.794 124.800 C 98.975 121.749,99.155 114.488,100.115 111.800 C 100.429 110.920,100.818 109.300,100.979 108.200 C 101.139 107.100,101.494 105.930,101.767 105.600 C 102.039 105.270,102.474 104.256,102.733 103.347 C 102.992 102.439,103.473 101.472,103.802 101.198 C 104.131 100.925,104.403 100.409,104.407 100.051 C 104.414 99.415,106.110 96.668,107.235 95.471 C 107.546 95.141,108.424 94.000,109.187 92.935 C 110.592 90.974,116.280 85.565,117.865 84.682 C 118.340 84.417,119.538 83.632,120.527 82.939 C 121.516 82.245,122.747 81.547,123.262 81.386 C 123.778 81.226,124.678 80.759,125.262 80.348 C 125.846 79.936,126.566 79.599,126.862 79.597 C 127.158 79.596,127.940 79.237,128.600 78.800 C 129.260 78.363,130.652 77.892,131.693 77.752 C 132.734 77.613,133.791 77.252,134.042 76.949 C 134.293 76.647,134.800 76.400,135.169 76.400 C 136.658 76.400,136.800 75.653,136.802 67.820 C 136.804 62.071,136.942 59.936,137.365 59.127 C 137.673 58.537,138.044 57.509,138.191 56.842 C 138.518 55.352,142.482 51.289,143.948 50.942 C 144.527 50.805,145.270 50.462,145.600 50.180 C 146.835 49.124,153.173 49.115,154.391 50.167 M291.054 174.998 C 291.684 175.326,292.574 175.596,293.030 175.598 C 293.487 175.599,294.283 176.050,294.800 176.600 C 295.317 177.150,295.978 177.600,296.270 177.600 C 296.561 177.600,296.800 177.735,296.801 177.900 C 296.801 178.065,297.341 178.830,298.000 179.600 C 298.659 180.370,299.199 181.226,299.199 181.501 C 299.200 181.777,299.560 182.675,300.000 183.496 C 300.566 184.551,300.800 185.752,300.800 187.600 C 300.800 189.448,300.566 190.649,300.000 191.704 C 299.560 192.525,299.200 193.448,299.200 193.755 C 299.200 194.477,295.256 198.469,293.981 199.038 C 289.992 200.817,290.298 200.800,262.292 200.800 C 239.474 200.800,235.529 200.715,234.546 200.202 C 233.916 199.874,233.023 199.604,232.562 199.602 C 232.101 199.601,231.398 199.240,231.000 198.800 C 230.602 198.360,230.067 198.000,229.812 198.000 C 229.556 198.000,228.775 197.325,228.075 196.500 C 227.375 195.675,226.524 194.708,226.184 194.350 C 225.844 193.993,225.469 193.003,225.351 192.150 C 225.233 191.298,224.951 190.215,224.724 189.744 C 224.014 188.268,225.097 182.034,226.300 180.678 C 228.638 178.042,231.460 175.599,232.173 175.594 C 232.628 175.591,233.450 175.339,234.000 175.033 C 235.554 174.171,289.405 174.137,291.054 174.998 M291.800 225.126 C 292.900 225.390,293.980 225.830,294.200 226.103 C 294.420 226.376,295.095 226.855,295.700 227.168 C 296.305 227.480,296.800 227.840,296.801 227.968 C 296.801 228.095,297.341 228.830,298.000 229.600 C 298.659 230.370,299.200 231.270,299.202 231.600 C 299.204 231.930,299.563 232.740,300.000 233.400 C 301.118 235.087,301.118 239.619,300.000 241.704 C 299.560 242.525,299.200 243.460,299.200 243.782 C 299.200 244.665,294.443 249.180,293.247 249.432 C 292.671 249.553,291.722 249.911,291.138 250.226 C 289.507 251.108,235.140 251.082,234.257 250.200 C 233.927 249.870,233.211 249.600,232.665 249.600 C 231.679 249.600,227.200 246.316,227.200 245.594 C 227.200 245.394,226.819 244.876,226.354 244.443 C 225.823 243.948,225.431 242.972,225.301 241.818 C 225.187 240.808,224.938 239.885,224.747 239.767 C 224.295 239.488,224.295 235.312,224.746 235.033 C 224.936 234.916,225.191 234.079,225.313 233.175 C 225.434 232.271,225.811 231.231,226.150 230.865 C 226.489 230.499,227.425 229.435,228.230 228.500 C 229.035 227.565,229.923 226.800,230.204 226.800 C 230.485 226.800,230.814 226.540,230.936 226.222 C 231.058 225.904,231.842 225.521,232.679 225.371 C 233.516 225.220,234.470 224.944,234.800 224.756 C 235.768 224.206,289.418 224.554,291.800 225.126 M292.800 275.573 C 293.570 275.997,294.575 276.521,295.033 276.737 C 295.997 277.191,299.200 280.896,299.200 281.557 C 299.200 281.802,299.560 282.675,300.000 283.496 C 302.724 288.579,299.013 296.602,292.537 299.629 L 290.022 300.805 199.397 300.703 C 134.731 300.629,108.689 300.476,108.485 300.166 C 108.328 299.927,107.584 299.520,106.830 299.262 C 106.077 299.004,105.121 298.480,104.707 298.096 C 102.367 295.933,101.195 294.489,100.979 293.502 C 100.844 292.891,100.434 292.091,100.067 291.724 C 99.121 290.778,99.105 284.422,100.046 283.342 C 100.402 282.934,100.801 282.143,100.933 281.584 C 101.239 280.288,104.421 276.800,105.296 276.800 C 105.661 276.800,106.106 276.540,106.283 276.223 C 107.039 274.873,108.515 274.851,200.000 274.826 C 289.553 274.802,291.428 274.817,292.800 275.573 M292.581 325.264 C 293.142 325.520,293.600 325.880,293.600 326.064 C 293.600 326.249,293.864 326.400,294.186 326.400 C 294.915 326.400,297.600 328.716,297.600 329.345 C 297.600 329.600,297.960 330.032,298.400 330.307 C 298.840 330.582,299.201 331.120,299.203 331.503 C 299.204 331.887,299.563 332.740,300.000 333.400 C 301.620 335.845,300.028 345.200,297.992 345.200 C 297.776 345.200,297.600 345.420,297.600 345.690 C 297.600 346.456,294.827 348.730,293.551 349.011 C 292.918 349.150,292.400 349.422,292.400 349.616 C 292.400 351.087,109.771 351.400,108.142 349.931 C 107.734 349.563,106.892 349.136,106.272 348.981 C 105.651 348.826,104.933 348.362,104.676 347.950 C 104.418 347.537,103.987 347.200,103.718 347.200 C 103.449 347.200,103.016 346.795,102.756 346.300 C 102.496 345.805,102.039 345.256,101.742 345.080 C 101.444 344.904,101.200 344.537,101.200 344.265 C 101.200 343.992,100.810 343.056,100.334 342.185 C 99.190 340.094,99.023 334.505,100.069 333.343 C 100.437 332.934,100.865 332.090,101.020 331.468 C 101.176 330.845,101.550 330.241,101.851 330.125 C 102.153 330.009,102.400 329.733,102.400 329.511 C 102.400 328.945,105.246 326.400,105.878 326.400 C 106.165 326.400,106.400 326.248,106.400 326.061 C 106.400 325.875,106.805 325.527,107.300 325.288 C 108.632 324.646,291.173 324.622,292.581 325.264 " stroke="none" fill="#fbfbfb" fill-rule="evenodd"></path><path id="path2" d="M112.500 25.100 C 132.905 25.157,166.295 25.157,186.700 25.100 C 207.105 25.043,190.410 24.996,149.600 24.996 C 108.790 24.996,92.095 25.043,112.500 25.100 M224.698 25.492 C 225.088 25.768,225.219 34.156,225.301 64.222 L 225.406 102.600 225.403 64.033 C 225.400 30.093,225.328 25.447,224.800 25.303 C 224.358 25.182,224.331 25.232,224.698 25.492 M74.998 200.000 C 74.998 296.030,75.044 335.315,75.100 287.300 C 75.156 239.285,75.156 160.715,75.100 112.700 C 75.044 64.685,74.998 103.970,74.998 200.000 M249.600 71.538 L 249.600 98.676 250.500 99.438 L 251.400 100.200 250.694 99.362 C 250.033 98.577,249.995 96.824,250.094 71.462 C 250.152 56.578,250.065 44.400,249.900 44.400 C 249.735 44.400,249.600 56.612,249.600 71.538 M162.169 67.600 C 162.169 72.110,162.227 73.955,162.298 71.700 C 162.370 69.445,162.370 65.755,162.298 63.500 C 162.227 61.245,162.169 63.090,162.169 67.600 M110.975 91.700 L 109.800 93.000 111.100 91.825 C 112.312 90.730,112.584 90.400,112.275 90.400 C 112.206 90.400,111.621 90.985,110.975 91.700 M305.571 98.100 C 306.210 98.948,305.625 99.858,304.271 100.122 C 303.425 100.286,303.424 100.293,304.238 100.346 C 305.690 100.440,306.726 98.939,305.795 98.088 C 305.083 97.436,305.072 97.437,305.571 98.100 M174.500 108.691 C 175.325 108.778,176.675 108.778,177.500 108.691 C 178.325 108.605,177.650 108.534,176.000 108.534 C 174.350 108.534,173.675 108.605,174.500 108.691 M350.198 243.600 C 350.198 316.750,350.244 346.675,350.300 310.100 C 350.356 273.525,350.356 213.675,350.300 177.100 C 350.244 140.525,350.198 170.450,350.198 243.600 M124.909 118.800 C 124.909 119.790,124.987 120.195,125.082 119.700 C 125.178 119.205,125.178 118.395,125.082 117.900 C 124.987 117.405,124.909 117.810,124.909 118.800 M100.120 120.800 C 100.120 122.010,100.195 122.505,100.287 121.900 C 100.378 121.295,100.378 120.305,100.287 119.700 C 100.195 119.095,100.120 119.590,100.120 120.800 M133.544 132.776 C 134.064 133.229,134.679 133.600,134.911 133.600 C 135.403 133.600,135.379 133.580,133.800 132.655 L 132.600 131.953 133.544 132.776 M152.100 137.887 C 152.705 137.978,153.695 137.978,154.300 137.887 C 154.905 137.795,154.410 137.720,153.200 137.720 C 151.990 137.720,151.495 137.795,152.100 137.887 M144.691 162.289 C 145.401 162.377,146.661 162.379,147.491 162.292 C 148.321 162.205,147.740 162.133,146.200 162.131 C 144.660 162.129,143.981 162.200,144.691 162.289 M248.700 175.500 C 256.235 175.561,268.565 175.561,276.100 175.500 C 283.635 175.439,277.470 175.389,262.400 175.389 C 247.330 175.389,241.165 175.439,248.700 175.500 M228.575 178.900 L 227.400 180.200 228.700 179.025 C 229.415 178.379,230.000 177.794,230.000 177.725 C 230.000 177.416,229.670 177.688,228.575 178.900 M199.293 186.800 C 199.293 187.570,199.375 187.885,199.476 187.500 C 199.576 187.115,199.576 186.485,199.476 186.100 C 199.375 185.715,199.293 186.030,199.293 186.800 M225.320 187.600 C 225.320 188.810,225.395 189.305,225.487 188.700 C 225.578 188.095,225.578 187.105,225.487 186.500 C 225.395 185.895,225.320 186.390,225.320 187.600 M249.329 199.900 C 256.550 199.961,268.250 199.961,275.329 199.900 C 282.408 199.839,276.500 199.789,262.200 199.789 C 247.900 199.789,242.108 199.839,249.329 199.900 M149.100 200.282 C 149.595 200.378,150.405 200.378,150.900 200.282 C 151.395 200.187,150.990 200.109,150.000 200.109 C 149.010 200.109,148.605 200.187,149.100 200.282 M162.167 232.400 C 162.167 236.690,162.226 238.445,162.298 236.300 C 162.370 234.155,162.370 230.645,162.298 228.500 C 162.226 226.355,162.167 228.110,162.167 232.400 M248.700 225.500 C 256.235 225.561,268.565 225.561,276.100 225.500 C 283.635 225.439,277.470 225.389,262.400 225.389 C 247.330 225.389,241.165 225.439,248.700 225.500 M225.324 237.400 C 225.326 238.720,225.401 239.212,225.490 238.493 C 225.579 237.774,225.577 236.694,225.486 236.093 C 225.395 235.492,225.322 236.080,225.324 237.400 M149.300 249.887 C 149.905 249.978,150.895 249.978,151.500 249.887 C 152.105 249.795,151.610 249.720,150.400 249.720 C 149.190 249.720,148.695 249.795,149.300 249.887 M248.900 249.900 C 256.325 249.961,268.475 249.961,275.900 249.900 C 283.325 249.839,277.250 249.789,262.400 249.789 C 247.550 249.789,241.475 249.839,248.900 249.900 M154.500 275.500 C 179.525 275.557,220.475 275.557,245.500 275.500 C 270.525 275.443,250.050 275.397,200.000 275.397 C 149.950 275.397,129.475 275.443,154.500 275.500 M156.068 300.300 C 180.195 300.357,219.795 300.357,244.068 300.300 C 268.341 300.243,248.600 300.196,200.200 300.196 C 151.800 300.196,131.941 300.243,156.068 300.300 M155.732 350.300 C 180.335 350.357,220.475 350.357,244.932 350.300 C 269.389 350.243,249.260 350.196,200.200 350.196 C 151.140 350.196,131.129 350.243,155.732 350.300 M137.700 375.100 C 171.965 375.156,228.035 375.156,262.300 375.100 C 296.565 375.044,268.530 374.997,200.000 374.997 C 131.470 374.997,103.435 375.044,137.700 375.100 M344.226 390.700 C 343.362 391.805,343.293 391.990,343.963 391.404 C 344.765 390.704,345.823 389.200,345.514 389.200 C 345.451 389.200,344.872 389.875,344.226 390.700 " stroke="none" fill="#848484" fill-rule="evenodd"></path><path id="path3" d="M67.455 0.600 C 67.329 0.930,66.814 1.203,66.313 1.206 C 65.811 1.209,64.950 1.468,64.400 1.782 C 63.850 2.095,62.831 2.617,62.135 2.941 C 61.439 3.265,60.520 3.861,60.091 4.265 C 59.663 4.669,58.657 5.526,57.856 6.170 C 57.055 6.813,56.400 7.578,56.400 7.870 C 56.400 8.161,56.130 8.400,55.800 8.400 C 55.470 8.400,55.200 8.555,55.200 8.745 C 55.200 8.935,54.660 9.769,54.000 10.600 C 53.340 11.431,52.800 12.355,52.800 12.655 C 52.800 12.955,52.467 13.533,52.061 13.939 C 51.654 14.346,51.200 15.438,51.052 16.367 C 50.903 17.296,50.471 18.531,50.091 19.111 C 49.027 20.734,49.016 379.636,50.080 381.200 C 50.454 381.750,50.881 382.962,51.030 383.892 C 51.178 384.823,51.558 385.799,51.873 386.061 C 52.188 386.322,52.686 387.111,52.980 387.813 C 53.747 389.650,54.435 390.425,60.216 395.961 C 60.665 396.391,61.522 396.866,62.121 397.016 C 62.720 397.166,63.357 397.552,63.537 397.874 C 63.717 398.195,64.630 398.561,65.567 398.686 C 66.503 398.812,67.363 399.159,67.477 399.457 C 67.740 400.142,69.329 400.186,69.101 399.502 C 69.009 399.228,67.992 398.795,66.840 398.539 C 65.687 398.283,64.442 397.808,64.072 397.484 C 63.702 397.160,63.019 396.779,62.553 396.637 C 62.087 396.495,61.384 396.024,60.991 395.590 C 60.598 395.155,60.079 394.794,59.838 394.787 C 58.965 394.762,53.212 388.049,53.191 387.030 C 53.186 386.794,52.830 386.150,52.400 385.600 C 51.970 385.050,51.614 384.308,51.609 383.952 C 51.604 383.596,51.240 382.177,50.800 380.800 C 50.005 378.311,50.000 377.194,50.000 200.139 L 50.000 21.983 50.846 18.892 C 51.312 17.191,51.856 15.530,52.054 15.200 C 52.253 14.870,52.696 13.988,53.039 13.240 C 55.195 8.527,62.143 2.731,67.169 1.451 C 68.142 1.203,69.012 0.775,69.103 0.500 C 69.339 -0.222,67.733 -0.124,67.455 0.600 M241.600 0.414 C 241.600 0.642,242.393 1.169,243.363 1.584 C 244.758 2.182,255.897 13.111,296.663 53.880 L 348.200 105.419 349.307 108.410 L 350.414 111.400 350.378 243.600 C 350.358 317.055,350.186 376.689,349.992 377.800 C 349.479 380.734,348.266 385.005,347.763 385.644 C 347.523 385.950,346.759 387.190,346.064 388.400 C 344.157 391.724,339.818 395.901,337.529 396.619 C 337.018 396.779,336.197 397.225,335.705 397.609 C 335.212 397.993,333.997 398.430,333.005 398.578 C 331.827 398.755,331.200 399.049,331.200 399.425 C 331.200 400.185,332.251 400.166,332.545 399.400 C 332.689 399.023,333.301 398.800,334.187 398.800 C 335.061 398.800,335.902 398.498,336.390 398.010 C 336.824 397.576,337.602 397.114,338.118 396.985 C 338.633 396.855,339.831 396.041,340.778 395.175 C 341.726 394.309,342.652 393.600,342.836 393.600 C 343.021 393.600,343.372 393.226,343.616 392.770 C 343.861 392.313,344.362 391.612,344.730 391.212 C 346.377 389.422,347.200 388.295,347.200 387.827 C 347.200 387.550,347.556 386.912,347.992 386.410 C 348.427 385.908,348.888 384.845,349.016 384.049 C 349.143 383.252,349.552 382.060,349.924 381.400 C 350.992 379.505,350.968 109.291,349.900 108.111 C 349.515 107.685,349.200 107.028,349.200 106.650 C 349.200 106.273,348.750 105.514,348.200 104.964 C 347.650 104.414,347.200 103.877,347.200 103.772 C 347.200 103.256,245.237 1.733,244.292 1.309 C 243.692 1.038,243.200 0.633,243.200 0.409 C 243.200 0.184,242.840 0.000,242.400 0.000 C 241.960 0.000,241.600 0.186,241.600 0.414 M75.200 200.000 L 75.200 374.800 76.300 374.746 C 77.243 374.699,77.272 374.666,76.500 374.518 L 75.600 374.344 75.600 199.972 L 75.600 25.600 149.996 25.600 L 224.392 25.600 224.532 64.100 C 224.678 104.120,224.803 107.216,226.377 109.763 C 226.830 110.495,227.200 111.360,227.200 111.685 C 227.200 112.010,227.555 112.598,227.990 112.991 C 228.424 113.384,228.897 114.077,229.041 114.531 C 229.413 115.700,235.098 121.159,236.245 121.447 C 236.770 121.579,237.200 121.856,237.200 122.064 C 237.200 122.271,237.875 122.707,238.700 123.033 C 239.525 123.359,240.740 123.934,241.400 124.313 C 242.506 124.946,245.747 125.016,282.800 125.200 C 314.519 125.358,323.190 125.508,323.900 125.914 L 324.800 126.428 324.800 250.388 L 324.800 374.347 323.700 374.531 C 322.655 374.707,322.660 374.713,323.800 374.658 L 325.000 374.600 325.101 250.242 C 325.174 159.918,325.080 125.738,324.759 125.351 C 324.398 124.915,316.988 124.799,284.059 124.709 L 243.800 124.600 241.600 123.650 C 240.390 123.127,239.130 122.544,238.800 122.354 C 238.470 122.164,237.511 121.636,236.668 121.180 C 234.694 120.112,230.288 115.706,229.220 113.732 C 228.764 112.889,228.224 111.930,228.020 111.600 C 227.815 111.270,227.143 109.920,226.526 108.600 L 225.404 106.200 225.282 66.011 C 225.189 35.286,225.048 25.751,224.680 25.518 C 224.416 25.350,190.675 25.209,149.700 25.206 L 75.200 25.200 75.200 200.000 M250.267 44.667 C 249.531 45.402,249.984 98.661,250.731 99.338 C 251.772 100.279,304.801 100.363,305.580 99.424 C 306.095 98.803,252.198 44.400,251.068 44.400 C 250.774 44.400,250.413 44.520,250.267 44.667 M305.200 99.023 C 305.200 99.124,293.005 99.159,278.100 99.103 L 251.000 99.000 250.896 72.400 C 250.839 57.770,250.880 45.571,250.987 45.292 C 251.149 44.868,305.200 98.439,305.200 99.023 M147.400 49.471 C 146.740 49.579,145.930 49.898,145.600 50.180 C 145.270 50.462,144.527 50.805,143.948 50.942 C 142.482 51.289,138.518 55.352,138.191 56.842 C 138.044 57.509,137.673 58.537,137.365 59.127 C 136.942 59.936,136.804 62.071,136.802 67.820 C 136.800 75.653,136.658 76.400,135.169 76.400 C 134.800 76.400,134.293 76.647,134.042 76.949 C 133.791 77.252,132.734 77.613,131.693 77.752 C 130.652 77.892,129.260 78.363,128.600 78.800 C 127.940 79.237,127.158 79.596,126.862 79.597 C 126.566 79.599,125.846 79.936,125.262 80.348 C 124.678 80.759,123.778 81.226,123.262 81.386 C 122.747 81.547,121.516 82.245,120.527 82.939 C 119.538 83.632,118.340 84.417,117.865 84.682 C 116.280 85.565,110.592 90.974,109.187 92.935 C 108.424 94.000,107.546 95.141,107.235 95.471 C 106.110 96.668,104.414 99.415,104.407 100.051 C 104.403 100.409,104.131 100.925,103.802 101.198 C 103.473 101.472,102.992 102.439,102.733 103.347 C 102.474 104.256,102.039 105.270,101.767 105.600 C 101.494 105.930,101.139 107.100,100.979 108.200 C 100.818 109.300,100.429 110.920,100.115 111.800 C 99.155 114.488,98.975 121.749,99.794 124.800 C 100.177 126.230,100.664 128.300,100.875 129.400 C 101.086 130.500,101.515 131.799,101.829 132.286 C 102.143 132.773,102.400 133.364,102.400 133.599 C 102.400 134.171,103.384 136.238,104.589 138.200 C 105.129 139.080,105.851 140.385,106.191 141.100 C 106.532 141.815,106.993 142.400,107.215 142.400 C 107.438 142.400,107.793 142.855,108.004 143.410 C 108.215 143.966,108.661 144.525,108.994 144.653 C 109.327 144.781,109.602 145.091,109.604 145.343 C 109.610 145.932,112.143 148.400,112.743 148.400 C 112.994 148.400,113.200 148.627,113.200 148.905 C 113.200 149.183,114.379 150.308,115.821 151.405 C 117.262 152.502,118.953 153.805,119.578 154.300 C 120.204 154.795,121.010 155.200,121.370 155.200 C 121.730 155.200,122.125 155.461,122.248 155.781 C 122.370 156.100,123.130 156.576,123.935 156.839 C 124.741 157.101,125.829 157.650,126.354 158.058 C 126.879 158.466,127.633 158.800,128.031 158.800 C 128.429 158.800,129.350 159.143,130.077 159.562 C 130.805 159.981,132.206 160.454,133.191 160.613 C 134.176 160.771,135.387 161.166,135.882 161.490 C 136.732 162.047,138.450 162.283,148.345 163.203 C 155.761 163.893,159.376 164.436,159.994 164.954 C 160.327 165.233,161.344 165.674,162.253 165.933 C 163.161 166.192,164.128 166.673,164.402 167.002 C 164.675 167.331,165.170 167.600,165.503 167.600 C 165.836 167.600,166.504 168.005,166.988 168.500 C 167.472 168.995,168.438 169.848,169.134 170.396 C 169.830 170.943,170.400 171.612,170.400 171.882 C 170.400 172.151,170.760 172.565,171.200 172.800 C 171.640 173.035,172.000 173.468,172.000 173.760 C 172.000 174.053,172.405 174.807,172.900 175.436 C 173.720 176.479,173.800 177.008,173.800 181.390 C 173.800 185.845,173.734 186.266,172.900 187.100 C 172.405 187.595,172.000 188.225,172.000 188.500 C 171.999 189.182,167.924 193.607,167.300 193.603 C 167.025 193.601,166.800 193.763,166.800 193.962 C 166.800 194.440,162.926 196.597,161.400 196.970 C 160.740 197.131,159.916 197.518,159.568 197.832 C 158.805 198.519,151.739 199.147,146.800 198.967 L 143.400 198.842 146.581 199.477 C 149.981 200.155,158.246 199.382,160.200 198.204 C 160.640 197.938,161.698 197.493,162.551 197.213 C 165.386 196.283,172.400 190.533,172.400 189.138 C 172.400 188.934,172.766 188.272,173.214 187.667 C 175.079 185.144,175.050 176.933,173.168 174.763 C 172.746 174.276,172.400 173.655,172.400 173.383 C 172.400 172.668,167.671 168.061,166.011 167.158 C 165.235 166.737,164.330 166.230,164.000 166.033 C 162.521 165.150,158.411 163.600,157.547 163.600 C 157.023 163.600,155.966 163.411,155.197 163.179 C 154.429 162.947,150.650 162.587,146.800 162.378 C 142.592 162.150,139.162 161.766,138.200 161.414 C 137.320 161.093,135.722 160.637,134.649 160.402 C 133.577 160.167,131.922 159.620,130.971 159.187 C 130.021 158.754,129.030 158.400,128.769 158.400 C 128.508 158.400,127.733 158.061,127.047 157.646 C 126.361 157.231,125.376 156.763,124.859 156.606 C 124.005 156.346,121.643 154.943,120.575 154.060 C 120.341 153.866,119.711 153.478,119.175 153.196 C 114.867 150.931,107.475 142.754,104.713 137.200 C 104.330 136.430,103.854 135.530,103.655 135.200 C 99.776 128.768,99.145 114.216,102.381 105.800 C 102.804 104.700,103.250 103.530,103.374 103.200 C 106.020 96.101,114.408 87.149,123.200 82.038 C 123.530 81.846,124.880 81.202,126.200 80.607 C 127.520 80.011,129.050 79.295,129.600 79.014 C 130.150 78.733,131.590 78.278,132.800 78.002 C 134.010 77.726,135.585 77.064,136.300 76.530 L 137.600 75.559 137.600 68.399 C 137.600 60.372,138.059 57.734,139.877 55.309 C 145.506 47.803,155.442 48.384,161.106 56.552 L 162.200 58.130 162.334 67.099 L 162.467 76.068 164.534 77.030 C 165.670 77.559,166.948 77.994,167.374 77.996 C 167.799 77.998,168.879 78.342,169.774 78.760 C 170.668 79.178,172.072 79.732,172.894 79.989 C 173.716 80.247,174.494 80.628,174.622 80.835 C 174.750 81.043,175.460 81.465,176.200 81.774 C 180.065 83.389,186.798 88.849,186.801 90.372 C 186.802 90.717,187.162 91.589,187.601 92.310 C 188.454 93.708,188.770 98.924,188.031 99.381 C 187.827 99.507,187.376 100.462,187.026 101.505 C 185.791 105.193,181.264 108.375,176.600 108.833 L 173.400 109.147 176.848 109.021 C 181.962 108.834,185.150 106.669,187.700 101.652 C 189.713 97.691,188.730 89.516,186.121 88.514 C 185.834 88.404,185.600 88.094,185.600 87.824 C 185.600 87.292,182.688 84.800,182.066 84.800 C 181.857 84.800,181.593 84.558,181.480 84.263 C 181.366 83.968,180.672 83.423,179.937 83.052 C 178.556 82.356,178.039 82.059,175.509 80.512 C 174.688 80.010,173.753 79.600,173.430 79.600 C 173.107 79.600,171.996 79.150,170.962 78.600 C 169.927 78.050,168.720 77.600,168.279 77.600 C 167.838 77.600,166.515 77.145,165.339 76.588 L 163.200 75.577 163.174 68.488 C 163.147 60.948,162.693 57.710,161.400 55.847 C 160.004 53.834,157.123 51.196,156.043 50.940 C 155.469 50.804,154.726 50.456,154.391 50.167 C 153.729 49.595,149.328 49.157,147.400 49.471 M146.000 100.394 C 143.215 100.837,140.361 101.625,138.556 102.449 C 137.652 102.862,136.720 103.200,136.485 103.200 C 136.250 103.200,135.810 103.447,135.509 103.748 C 135.208 104.050,134.430 104.582,133.780 104.932 C 132.551 105.593,128.400 109.332,128.400 109.777 C 128.400 109.918,128.043 110.520,127.607 111.116 C 123.494 116.737,125.027 125.202,131.130 130.570 C 133.128 132.327,136.891 134.775,137.615 134.789 C 137.954 134.795,138.944 135.169,139.815 135.620 C 141.425 136.452,144.450 136.942,152.000 137.592 C 159.513 138.238,163.152 138.793,165.209 139.604 C 166.320 140.042,167.538 140.406,167.915 140.413 C 168.292 140.419,169.500 140.868,170.600 141.409 C 171.700 141.950,172.904 142.394,173.276 142.396 C 173.648 142.398,174.073 142.595,174.220 142.833 C 174.368 143.071,175.233 143.609,176.144 144.028 C 179.510 145.577,184.309 149.164,187.923 152.833 C 191.712 156.679,191.459 156.356,194.625 161.400 C 195.708 163.126,197.242 166.403,197.620 167.800 C 197.799 168.460,198.228 169.768,198.573 170.706 C 201.624 179.003,198.873 195.771,193.234 203.239 C 188.373 209.677,184.299 213.511,178.650 216.964 C 176.053 218.551,171.464 220.800,170.821 220.800 C 170.454 220.800,169.804 221.064,169.376 221.387 C 168.949 221.709,167.577 222.181,166.326 222.434 C 162.486 223.211,162.493 223.192,162.335 233.235 L 162.200 241.869 161.000 243.621 C 156.125 250.738,147.860 252.098,141.879 246.768 C 138.104 243.403,137.600 241.643,137.600 231.834 C 137.600 223.529,137.459 223.191,133.698 222.451 C 132.416 222.199,131.015 221.747,130.584 221.447 C 130.153 221.148,129.170 220.769,128.400 220.607 C 127.630 220.444,126.730 220.079,126.400 219.795 C 126.070 219.512,125.170 218.990,124.400 218.637 C 112.107 212.994,108.421 203.676,115.167 195.298 C 115.919 194.364,116.691 193.600,116.883 193.600 C 117.075 193.600,117.775 193.199,118.437 192.709 C 121.923 190.132,128.510 191.306,134.707 195.607 C 135.968 196.483,137.180 197.205,137.400 197.213 C 137.620 197.221,138.520 197.575,139.400 198.000 C 140.280 198.425,141.540 198.752,142.200 198.726 L 143.400 198.680 142.300 198.513 C 141.695 198.422,141.200 198.208,141.200 198.037 C 141.200 197.867,140.435 197.502,139.500 197.225 C 138.565 196.949,137.530 196.562,137.200 196.366 C 136.870 196.169,135.925 195.643,135.100 195.196 C 134.275 194.749,133.600 194.207,133.600 193.992 C 133.600 193.776,133.372 193.600,133.093 193.600 C 132.814 193.600,131.959 193.174,131.193 192.654 C 127.595 190.211,120.891 190.187,117.477 192.605 C 115.729 193.842,113.600 195.855,113.600 196.270 C 113.600 196.476,113.150 197.255,112.600 198.000 C 111.218 199.873,111.081 207.632,112.400 209.309 C 112.840 209.869,113.200 210.488,113.200 210.685 C 113.200 211.165,115.815 214.000,116.258 214.000 C 116.450 214.000,116.832 214.360,117.107 214.800 C 117.382 215.240,117.853 215.600,118.154 215.600 C 118.456 215.600,118.949 215.898,119.251 216.262 C 119.553 216.626,120.385 217.168,121.100 217.467 C 121.815 217.766,122.400 218.160,122.400 218.341 C 122.400 218.523,123.120 218.910,124.000 219.200 C 124.880 219.490,125.600 219.872,125.600 220.049 C 125.600 220.225,126.365 220.573,127.300 220.822 C 128.235 221.071,129.283 221.527,129.629 221.835 C 129.975 222.144,131.145 222.511,132.229 222.651 C 133.359 222.797,134.755 223.319,135.500 223.873 L 136.800 224.841 136.814 232.320 C 136.825 238.876,136.923 239.998,137.600 241.400 C 138.025 242.280,138.379 243.288,138.386 243.641 C 138.408 244.670,143.060 249.106,144.434 249.407 C 145.105 249.555,146.137 249.927,146.727 250.235 C 148.111 250.957,152.562 250.981,153.273 250.270 C 153.565 249.978,154.419 249.616,155.172 249.466 C 156.584 249.183,156.834 249.013,159.200 246.723 C 162.587 243.445,162.824 242.564,163.069 232.347 C 163.275 223.749,163.369 223.527,167.093 222.820 C 168.222 222.606,169.829 222.064,170.666 221.616 C 171.503 221.167,172.478 220.800,172.832 220.800 C 173.186 220.800,173.786 220.458,174.164 220.040 C 174.543 219.621,175.480 219.161,176.247 219.018 C 177.014 218.874,177.742 218.496,177.864 218.178 C 177.986 217.860,178.282 217.600,178.521 217.600 C 179.618 217.600,185.702 212.802,188.745 209.536 C 189.840 208.361,191.110 207.021,191.568 206.558 C 192.026 206.095,192.400 205.541,192.400 205.328 C 192.400 205.114,192.850 204.517,193.400 204.000 C 193.950 203.483,194.400 202.726,194.400 202.318 C 194.400 201.909,194.661 201.475,194.981 201.352 C 195.300 201.230,195.773 200.470,196.031 199.665 C 196.290 198.859,196.721 197.930,196.990 197.600 C 199.511 194.505,201.586 180.418,200.196 175.836 C 199.868 174.756,199.600 173.134,199.600 172.231 C 199.600 171.327,199.264 169.961,198.853 169.194 C 198.443 168.427,197.969 167.170,197.801 166.400 C 197.633 165.630,197.159 164.571,196.748 164.046 C 196.337 163.521,196.000 162.845,196.000 162.542 C 196.000 162.240,195.640 161.684,195.200 161.307 C 194.760 160.930,194.400 160.334,194.400 159.981 C 194.400 159.628,193.950 158.917,193.400 158.400 C 192.850 157.883,192.400 157.216,192.400 156.918 C 192.400 156.619,192.116 156.266,191.769 156.133 C 191.423 156.000,190.977 155.465,190.779 154.945 C 190.582 154.425,190.145 154.000,189.810 154.000 C 189.474 154.000,189.200 153.811,189.200 153.580 C 189.200 153.004,186.628 150.400,186.060 150.400 C 185.807 150.400,185.600 150.124,185.600 149.787 C 185.600 149.451,185.285 149.061,184.900 148.922 C 184.515 148.784,183.930 148.425,183.600 148.126 C 182.129 146.791,179.848 145.200,179.407 145.200 C 179.141 145.200,178.598 144.840,178.200 144.400 C 177.802 143.960,177.179 143.600,176.816 143.600 C 176.453 143.600,175.545 143.150,174.800 142.600 C 174.055 142.050,173.052 141.600,172.571 141.600 C 172.091 141.600,171.478 141.335,171.209 141.011 C 170.940 140.686,170.063 140.304,169.260 140.160 C 168.457 140.017,167.080 139.579,166.200 139.189 C 165.320 138.798,163.347 138.346,161.816 138.184 C 160.284 138.021,158.484 137.667,157.816 137.396 C 157.138 137.121,153.593 136.782,149.800 136.630 C 144.261 136.408,142.769 136.221,141.751 135.622 C 141.065 135.218,139.760 134.762,138.851 134.609 C 137.943 134.455,137.200 134.187,137.200 134.013 C 137.200 133.839,136.615 133.463,135.900 133.176 C 133.664 132.280,128.439 127.636,128.412 126.520 C 128.405 126.256,128.131 125.889,127.801 125.705 C 127.076 125.299,125.544 118.465,125.985 117.600 C 126.153 117.270,126.413 116.196,126.564 115.213 C 126.835 113.440,128.633 110.341,130.516 108.400 C 132.019 106.851,133.568 105.600,133.982 105.600 C 134.189 105.600,134.844 105.150,135.438 104.600 C 136.031 104.050,136.896 103.599,137.358 103.597 C 137.821 103.596,138.732 103.244,139.381 102.816 C 140.031 102.388,141.561 101.921,142.781 101.780 C 144.002 101.639,146.195 101.260,147.657 100.939 C 149.986 100.428,150.602 100.428,152.657 100.940 C 153.945 101.262,156.078 101.650,157.395 101.803 C 158.713 101.956,160.243 102.397,160.795 102.782 C 161.348 103.168,162.300 103.604,162.910 103.752 C 163.521 103.900,164.376 104.376,164.810 104.810 C 165.245 105.245,165.870 105.600,166.200 105.600 C 166.530 105.600,166.800 105.763,166.800 105.962 C 166.800 106.595,171.143 108.802,172.294 108.754 C 173.066 108.721,173.173 108.649,172.647 108.514 C 171.494 108.218,168.551 106.584,166.434 105.063 C 165.388 104.311,164.097 103.565,163.566 103.406 C 163.034 103.247,162.165 102.841,161.632 102.505 C 158.940 100.803,150.549 99.669,146.000 100.394 M234.000 175.033 C 233.450 175.339,232.628 175.591,232.173 175.594 C 231.460 175.599,228.638 178.042,226.300 180.678 C 225.097 182.034,224.014 188.268,224.724 189.744 C 224.951 190.215,225.233 191.298,225.351 192.150 C 225.469 193.003,225.844 193.993,226.184 194.350 C 226.524 194.708,227.375 195.675,228.075 196.500 C 228.775 197.325,229.556 198.000,229.812 198.000 C 230.067 198.000,230.602 198.360,231.000 198.800 C 231.398 199.240,232.101 199.601,232.562 199.602 C 233.023 199.604,233.916 199.874,234.546 200.202 C 235.529 200.715,239.474 200.800,262.292 200.800 C 290.298 200.800,289.992 200.817,293.981 199.038 C 295.256 198.469,299.200 194.477,299.200 193.755 C 299.200 193.448,299.560 192.525,300.000 191.704 C 300.566 190.649,300.800 189.448,300.800 187.600 C 300.800 185.752,300.566 184.551,300.000 183.496 C 299.560 182.675,299.200 181.777,299.199 181.501 C 299.199 181.226,298.659 180.370,298.000 179.600 C 297.341 178.830,296.801 178.065,296.801 177.900 C 296.800 177.735,296.561 177.600,296.270 177.600 C 295.978 177.600,295.317 177.150,294.800 176.600 C 294.283 176.050,293.487 175.599,293.030 175.598 C 292.574 175.596,291.684 175.326,291.054 174.998 C 289.405 174.137,235.554 174.171,234.000 175.033 M293.000 176.188 C 296.834 178.078,300.109 183.336,300.109 187.600 C 300.109 189.196,298.522 194.400,298.035 194.400 C 297.870 194.400,297.502 194.836,297.217 195.368 C 294.850 199.791,292.600 200.068,260.180 199.919 C 232.292 199.791,233.940 199.904,230.585 197.889 C 222.204 192.855,224.134 178.318,233.524 175.751 C 237.046 174.788,290.963 175.185,293.000 176.188 M234.800 224.756 C 234.470 224.944,233.516 225.220,232.679 225.371 C 231.842 225.521,231.058 225.904,230.936 226.222 C 230.814 226.540,230.485 226.800,230.204 226.800 C 229.923 226.800,229.035 227.565,228.230 228.500 C 227.425 229.435,226.489 230.499,226.150 230.865 C 225.811 231.231,225.434 232.271,225.313 233.175 C 225.191 234.079,224.936 234.916,224.746 235.033 C 224.295 235.312,224.295 239.488,224.747 239.767 C 224.938 239.885,225.187 240.808,225.301 241.818 C 225.431 242.972,225.823 243.948,226.354 244.443 C 226.819 244.876,227.200 245.394,227.200 245.594 C 227.200 246.316,231.679 249.600,232.665 249.600 C 233.211 249.600,233.927 249.870,234.257 250.200 C 235.140 251.082,289.507 251.108,291.138 250.226 C 291.722 249.911,292.671 249.553,293.247 249.432 C 294.443 249.180,299.200 244.665,299.200 243.782 C 299.200 243.460,299.560 242.525,300.000 241.704 C 301.118 239.619,301.118 235.087,300.000 233.400 C 299.563 232.740,299.204 231.930,299.202 231.600 C 299.200 231.270,298.659 230.370,298.000 229.600 C 297.341 228.830,296.801 228.095,296.801 227.968 C 296.800 227.840,296.305 227.480,295.700 227.168 C 295.095 226.855,294.420 226.376,294.200 226.103 C 293.157 224.807,289.929 224.646,262.600 224.530 C 247.640 224.467,235.130 224.569,234.800 224.756 M293.873 226.750 C 302.680 232.485,301.710 245.504,292.201 249.181 C 289.362 250.279,237.170 250.312,233.569 249.218 C 228.168 247.578,225.437 243.702,225.415 237.648 L 225.400 233.384 226.936 231.070 C 230.897 225.103,229.924 225.255,263.600 225.334 L 291.800 225.400 293.873 226.750 M107.603 275.248 C 107.055 275.467,106.461 275.906,106.283 276.223 C 106.106 276.540,105.661 276.800,105.296 276.800 C 104.421 276.800,101.239 280.288,100.933 281.584 C 100.801 282.143,100.402 282.934,100.046 283.342 C 99.105 284.422,99.121 290.778,100.067 291.724 C 100.434 292.091,100.844 292.891,100.979 293.502 C 101.195 294.489,102.367 295.933,104.707 298.096 C 105.121 298.480,106.077 299.004,106.830 299.262 C 107.584 299.520,108.328 299.927,108.485 300.166 C 108.689 300.476,134.731 300.629,199.397 300.703 L 290.022 300.805 292.537 299.629 C 299.013 296.602,302.724 288.579,300.000 283.496 C 299.560 282.675,299.200 281.802,299.200 281.557 C 299.200 280.896,295.997 277.191,295.033 276.737 C 294.575 276.521,293.570 275.997,292.800 275.573 C 291.198 274.690,109.800 274.372,107.603 275.248 M293.600 276.590 C 302.937 282.761,301.826 295.767,291.663 299.280 L 289.000 300.200 199.800 300.200 L 110.600 300.200 108.350 299.339 C 101.761 296.816,98.583 290.180,100.806 283.581 C 101.250 282.264,101.978 280.785,102.425 280.294 C 102.872 279.802,103.544 279.064,103.919 278.654 C 104.765 277.728,107.528 275.889,108.600 275.538 C 109.040 275.394,150.440 275.304,200.600 275.338 L 291.800 275.400 293.600 276.590 M107.300 325.288 C 106.805 325.527,106.400 325.875,106.400 326.061 C 106.400 326.248,106.165 326.400,105.878 326.400 C 105.246 326.400,102.400 328.945,102.400 329.511 C 102.400 329.733,102.153 330.009,101.851 330.125 C 101.550 330.241,101.176 330.845,101.020 331.468 C 100.865 332.090,100.437 332.934,100.069 333.343 C 99.023 334.505,99.190 340.094,100.334 342.185 C 100.810 343.056,101.200 343.992,101.200 344.265 C 101.200 344.537,101.444 344.904,101.742 345.080 C 102.039 345.256,102.496 345.805,102.756 346.300 C 103.016 346.795,103.449 347.200,103.718 347.200 C 103.987 347.200,104.418 347.537,104.676 347.950 C 104.933 348.362,105.651 348.826,106.272 348.981 C 106.892 349.136,107.734 349.563,108.142 349.931 C 109.771 351.400,292.400 351.087,292.400 349.616 C 292.400 349.422,292.918 349.150,293.551 349.011 C 294.827 348.730,297.600 346.456,297.600 345.690 C 297.600 345.420,297.776 345.200,297.992 345.200 C 300.028 345.200,301.620 335.845,300.000 333.400 C 299.563 332.740,299.204 331.887,299.203 331.503 C 299.201 331.120,298.840 330.582,298.400 330.307 C 297.960 330.032,297.600 329.600,297.600 329.345 C 297.600 328.716,294.915 326.400,294.186 326.400 C 293.864 326.400,293.600 326.249,293.600 326.064 C 293.600 324.828,291.479 324.800,199.881 324.827 C 134.836 324.846,107.939 324.980,107.300 325.288 M292.761 326.240 C 300.616 329.888,302.443 340.243,296.314 346.372 C 295.188 347.497,293.803 348.525,293.234 348.657 C 292.665 348.788,291.750 349.189,291.200 349.548 C 290.283 350.146,282.738 350.200,200.200 350.200 L 110.200 350.200 107.874 349.151 C 105.746 348.191,104.047 346.874,102.355 344.873 C 99.623 341.642,99.550 333.295,102.229 330.400 C 102.535 330.070,103.215 329.304,103.740 328.698 C 104.266 328.092,105.754 327.059,107.048 326.403 L 109.400 325.210 199.961 325.205 L 290.523 325.200 292.761 326.240 " stroke="none" fill="#a2a2a2" fill-rule="evenodd"></path><path id="path4" d="M69.600 0.567 C 69.600 0.921,68.869 1.290,67.649 1.552 C 59.212 3.362,52.468 11.355,50.398 22.000 C 49.956 24.273,49.930 375.543,50.371 378.000 C 50.834 380.574,51.636 383.684,52.047 384.500 C 54.924 390.208,60.400 396.400,62.573 396.400 C 62.858 396.400,63.554 396.764,64.119 397.208 C 64.684 397.652,66.149 398.217,67.373 398.463 C 68.767 398.743,69.600 399.114,69.600 399.455 C 69.600 399.794,70.054 400.000,70.800 400.000 C 73.625 400.000,71.701 398.627,68.053 398.040 C 66.696 397.821,65.305 397.363,64.964 397.021 C 64.622 396.679,64.100 396.400,63.802 396.400 C 63.505 396.400,62.727 395.950,62.073 395.400 C 61.419 394.850,60.765 394.400,60.619 394.400 C 60.055 394.400,57.200 391.839,57.200 391.333 C 57.200 391.040,57.038 390.800,56.840 390.800 C 56.450 390.800,55.269 389.064,53.461 385.834 C 52.444 384.016,52.048 382.559,50.792 376.000 C 50.342 373.647,50.342 26.353,50.792 24.000 C 50.982 23.010,51.402 20.795,51.727 19.078 C 52.051 17.360,52.605 15.636,52.958 15.246 C 53.311 14.856,53.600 14.258,53.600 13.917 C 53.600 13.577,53.882 13.064,54.226 12.778 C 54.571 12.492,55.135 11.705,55.481 11.029 C 55.826 10.353,56.354 9.656,56.654 9.480 C 56.954 9.304,57.200 8.933,57.200 8.655 C 57.200 7.952,63.187 3.600,64.155 3.600 C 64.365 3.600,64.821 3.355,65.169 3.056 C 65.516 2.757,66.970 2.290,68.400 2.018 C 71.875 1.359,73.490 0.000,70.800 0.000 C 70.031 0.000,69.600 0.204,69.600 0.567 M240.071 0.666 C 240.146 1.053,240.993 1.597,242.093 1.966 C 244.370 2.729,248.123 5.944,253.532 11.766 C 254.265 12.555,255.030 13.200,255.232 13.200 C 255.435 13.200,255.600 13.458,255.600 13.773 C 255.600 14.088,255.960 14.460,256.400 14.600 C 256.840 14.740,257.200 14.999,257.200 15.176 C 257.200 15.649,260.951 19.439,261.946 19.971 C 262.416 20.222,262.800 20.680,262.800 20.987 C 262.800 21.295,263.160 21.660,263.600 21.800 C 264.040 21.940,264.400 22.217,264.400 22.417 C 264.400 22.617,265.050 23.370,265.844 24.090 C 267.795 25.860,271.600 29.637,271.600 29.804 C 271.600 30.028,274.046 32.400,274.277 32.400 C 274.395 32.400,275.110 33.075,275.864 33.900 C 278.994 37.320,281.229 39.600,281.453 39.600 C 281.585 39.600,282.307 40.275,283.059 41.100 C 286.073 44.406,286.881 45.200,287.232 45.200 C 287.435 45.200,287.600 45.458,287.600 45.773 C 287.600 46.088,287.960 46.460,288.400 46.600 C 288.840 46.740,289.200 47.006,289.200 47.192 C 289.200 47.378,290.235 48.533,291.500 49.759 C 294.406 52.575,296.216 54.384,298.038 56.293 C 298.828 57.122,300.403 58.657,301.538 59.705 C 302.672 60.753,303.600 61.693,303.600 61.795 C 303.600 61.896,304.244 62.569,305.030 63.290 C 305.817 64.010,307.392 65.567,308.530 66.749 C 309.669 67.932,311.217 69.462,311.970 70.149 C 313.853 71.868,316.359 74.422,317.155 75.433 C 317.518 75.895,318.217 76.488,318.708 76.751 C 319.198 77.013,319.600 77.480,319.600 77.787 C 319.600 78.095,319.951 78.457,320.380 78.594 C 320.808 78.730,321.267 79.183,321.400 79.600 C 321.533 80.017,321.983 80.467,322.400 80.600 C 322.817 80.733,323.270 81.192,323.406 81.620 C 323.543 82.049,323.790 82.400,323.956 82.400 C 324.272 82.400,327.710 85.697,329.836 88.039 C 330.515 88.787,332.090 90.325,333.336 91.455 C 334.581 92.586,335.600 93.699,335.600 93.928 C 335.600 94.158,335.951 94.457,336.380 94.594 C 336.808 94.730,337.270 95.192,337.406 95.620 C 337.543 96.049,337.804 96.400,337.987 96.400 C 338.327 96.400,340.042 98.040,342.221 100.450 C 342.892 101.192,343.973 102.250,344.623 102.800 C 346.178 104.117,348.400 107.516,348.400 108.580 C 348.400 109.043,348.671 109.809,349.002 110.282 C 350.106 111.857,349.637 376.162,348.522 380.914 C 348.069 382.847,347.406 384.751,347.049 385.146 C 346.692 385.540,346.400 386.153,346.400 386.508 C 346.400 386.863,346.224 387.261,346.010 387.394 C 345.795 387.527,344.944 388.662,344.118 389.918 C 343.292 391.173,342.467 392.264,342.284 392.341 C 342.101 392.419,341.493 392.908,340.931 393.429 C 340.370 393.949,339.571 394.482,339.155 394.614 C 338.740 394.746,338.400 395.002,338.400 395.184 C 338.400 395.365,337.725 395.812,336.900 396.177 C 336.075 396.542,334.950 397.098,334.400 397.414 C 333.850 397.730,333.075 397.991,332.677 397.994 C 331.086 398.007,328.400 398.920,328.400 399.447 C 328.400 400.186,330.251 400.164,330.536 399.422 C 330.658 399.104,331.442 398.732,332.279 398.594 C 338.719 397.535,346.875 389.481,348.676 382.400 C 348.984 381.190,349.403 379.570,349.608 378.800 C 349.835 377.949,349.985 325.189,349.991 244.200 L 350.000 111.000 349.112 108.400 L 348.223 105.800 296.616 54.113 C 253.138 10.570,244.708 2.302,243.104 1.636 C 242.057 1.200,241.200 0.654,241.200 0.422 C 241.200 0.190,240.917 0.000,240.571 0.000 C 240.199 0.000,239.994 0.272,240.071 0.666 M75.100 24.832 C 74.149 25.386,73.992 374.363,74.942 375.152 C 75.341 375.483,108.400 375.575,200.442 375.501 L 325.400 375.400 325.400 250.000 L 325.400 124.600 285.200 124.400 L 245.000 124.200 243.406 123.300 C 242.529 122.805,241.314 122.400,240.706 122.400 C 240.098 122.400,239.240 122.040,238.800 121.600 C 238.360 121.160,237.845 120.800,237.655 120.800 C 236.971 120.800,232.123 116.757,231.400 115.585 C 230.333 113.853,229.211 112.158,228.880 111.777 C 228.678 111.545,228.288 110.645,228.012 109.777 C 227.736 108.910,227.216 107.750,226.855 107.200 C 226.261 106.293,226.189 102.426,226.086 65.685 L 225.971 25.169 224.960 24.785 C 223.527 24.240,76.037 24.287,75.100 24.832 M224.400 25.158 L 225.400 25.436 225.600 66.018 L 225.800 106.600 226.700 108.312 C 227.195 109.254,227.603 110.244,227.606 110.512 C 227.609 110.781,228.250 111.900,229.029 113.000 C 229.809 114.100,230.733 115.450,231.083 116.000 C 231.726 117.010,236.085 120.800,236.604 120.800 C 236.758 120.800,237.419 121.250,238.073 121.800 C 238.727 122.350,239.616 122.800,240.050 122.800 C 240.484 122.800,241.595 123.205,242.519 123.700 L 244.200 124.600 284.600 124.800 L 325.000 125.000 325.101 249.776 C 325.181 349.333,325.100 374.616,324.701 374.870 C 323.823 375.427,75.838 375.278,75.280 374.720 C 74.580 374.020,74.580 25.980,75.280 25.280 C 75.812 24.748,222.495 24.628,224.400 25.158 M249.190 43.826 C 248.615 45.338,248.667 98.070,249.244 99.337 C 249.488 99.873,250.127 100.512,250.663 100.756 C 251.718 101.237,303.606 101.419,305.950 100.950 C 308.718 100.396,308.048 99.436,298.600 90.414 C 297.940 89.784,295.974 87.813,294.232 86.034 C 292.490 84.255,290.915 82.800,290.732 82.800 C 290.549 82.800,290.400 82.623,290.400 82.407 C 290.400 82.191,289.390 81.066,288.156 79.907 C 286.921 78.748,284.986 76.825,283.856 75.633 C 282.725 74.441,281.080 72.778,280.200 71.937 C 279.320 71.096,278.420 70.217,278.200 69.983 C 277.980 69.750,276.360 68.130,274.600 66.385 C 272.840 64.639,271.220 63.023,271.000 62.794 C 270.780 62.565,269.633 61.438,268.451 60.289 C 267.268 59.140,265.738 57.589,265.051 56.842 C 262.407 53.972,259.105 50.800,258.760 50.800 C 258.562 50.800,258.400 50.648,258.400 50.462 C 258.400 49.971,254.093 45.600,253.609 45.600 C 253.384 45.600,253.200 45.327,253.200 44.994 C 253.200 43.350,249.753 42.346,249.190 43.826 M264.610 57.205 C 291.078 83.703,304.632 97.175,305.600 97.949 C 306.512 98.678,306.545 98.805,305.969 99.391 C 304.982 100.396,251.454 100.354,250.341 99.347 C 249.633 98.706,249.600 97.451,249.600 71.538 L 249.600 44.400 250.710 44.400 C 251.634 44.400,253.965 46.548,264.610 57.205 M147.000 50.644 C 146.120 50.979,145.040 51.360,144.600 51.492 C 139.722 52.952,137.506 58.711,137.639 69.582 L 137.714 75.764 136.548 76.663 C 135.906 77.158,134.305 77.843,132.990 78.185 C 131.676 78.526,130.057 79.063,129.394 79.377 C 128.731 79.691,127.741 80.140,127.194 80.373 C 126.647 80.607,125.930 80.957,125.600 81.151 C 125.270 81.344,124.370 81.798,123.600 82.159 C 117.316 85.101,108.471 93.680,105.380 99.829 C 104.731 101.120,103.975 102.420,103.700 102.717 C 103.425 103.014,103.200 103.652,103.200 104.134 C 103.200 104.617,102.847 105.670,102.417 106.474 C 101.986 107.278,101.449 109.345,101.224 111.068 C 101.000 112.790,100.669 115.100,100.490 116.200 C 99.948 119.526,101.127 128.903,102.401 131.402 C 102.840 132.264,103.200 133.354,103.200 133.823 C 103.200 134.293,103.555 135.087,103.988 135.586 C 104.422 136.086,104.897 136.875,105.044 137.340 C 105.192 137.804,105.619 138.638,105.994 139.192 C 106.368 139.747,107.198 140.999,107.837 141.975 C 109.079 143.871,115.138 150.184,116.800 151.314 C 117.350 151.688,118.790 152.649,120.000 153.451 C 121.210 154.252,122.653 155.218,123.208 155.598 C 123.762 155.977,124.662 156.423,125.208 156.589 C 125.753 156.755,126.761 157.231,127.447 157.646 C 128.133 158.061,128.908 158.400,129.169 158.400 C 129.430 158.400,130.399 158.741,131.322 159.157 C 132.245 159.574,134.080 160.133,135.400 160.401 C 136.720 160.668,138.005 161.053,138.256 161.256 C 138.506 161.458,141.836 161.801,145.656 162.016 C 149.475 162.232,153.770 162.665,155.200 162.980 C 156.630 163.295,158.250 163.636,158.800 163.738 C 167.606 165.381,177.012 176.627,174.825 182.901 C 174.591 183.571,174.400 184.607,174.400 185.204 C 174.400 185.800,173.950 186.951,173.400 187.762 C 172.850 188.572,172.400 189.371,172.400 189.537 C 172.400 190.710,165.393 196.423,163.000 197.201 C 162.120 197.487,161.040 197.951,160.600 198.232 C 156.890 200.599,143.439 200.422,138.806 197.945 C 138.039 197.535,137.261 197.200,137.078 197.200 C 136.894 197.200,134.911 195.985,132.672 194.500 L 128.600 191.800 124.391 191.800 C 111.806 191.802,107.245 207.261,117.762 214.269 C 118.663 214.869,119.760 215.669,120.200 216.048 C 121.322 217.012,128.796 220.800,129.577 220.800 C 129.932 220.800,130.577 221.048,131.011 221.352 C 131.445 221.655,132.840 222.119,134.111 222.382 C 137.588 223.103,137.767 223.535,137.650 230.941 C 137.501 240.346,138.287 243.220,141.957 246.687 C 146.946 251.400,157.833 249.960,160.449 244.241 C 160.661 243.779,161.094 242.950,161.411 242.400 C 161.863 241.617,161.989 239.589,161.994 233.069 L 162.000 224.738 163.169 223.569 C 163.961 222.777,164.741 222.400,165.585 222.400 C 166.271 222.400,167.500 222.066,168.316 221.657 C 169.132 221.248,170.329 220.786,170.976 220.630 C 171.622 220.474,172.640 219.999,173.237 219.573 C 173.835 219.148,174.544 218.800,174.815 218.800 C 175.085 218.800,175.954 218.395,176.747 217.900 C 177.540 217.405,178.506 216.820,178.893 216.600 C 182.247 214.697,188.611 209.133,190.800 206.191 C 191.130 205.747,191.895 204.725,192.500 203.919 C 193.946 201.992,197.600 194.862,197.600 193.967 C 197.600 193.582,197.988 192.396,198.463 191.333 C 199.250 189.568,199.327 188.703,199.346 181.400 L 199.367 173.400 198.049 169.600 C 197.323 167.510,196.476 165.401,196.165 164.914 C 195.854 164.427,195.600 163.835,195.600 163.598 C 195.600 163.361,195.264 162.680,194.854 162.084 C 194.444 161.488,193.414 159.920,192.567 158.600 C 191.254 156.556,184.957 149.855,183.170 148.600 C 179.559 146.065,178.234 145.257,175.752 144.075 C 174.845 143.644,173.979 143.090,173.828 142.845 C 173.677 142.600,173.248 142.398,172.876 142.396 C 172.504 142.394,171.300 141.950,170.200 141.409 C 169.100 140.868,167.802 140.419,167.315 140.413 C 166.828 140.406,165.512 140.038,164.390 139.596 C 162.982 139.041,160.220 138.603,155.475 138.181 C 151.694 137.846,147.622 137.398,146.427 137.186 C 145.231 136.973,143.701 136.799,143.027 136.798 C 142.352 136.796,141.325 136.547,140.745 136.245 C 140.165 135.942,138.770 135.389,137.645 135.015 C 136.520 134.641,135.600 134.190,135.600 134.011 C 135.600 133.833,135.175 133.580,134.655 133.450 C 133.677 133.204,128.836 128.644,127.360 126.576 C 122.746 120.118,125.929 108.914,133.553 104.777 C 134.349 104.345,135.270 103.825,135.600 103.621 C 141.315 100.086,150.720 98.948,157.400 100.982 C 158.500 101.317,159.732 101.593,160.137 101.596 C 160.542 101.598,161.331 101.960,161.891 102.400 C 162.450 102.840,163.216 103.200,163.592 103.200 C 163.968 103.200,164.602 103.560,165.000 104.000 C 165.398 104.440,165.907 104.800,166.130 104.800 C 166.354 104.800,166.821 105.052,167.169 105.359 C 170.744 108.526,177.135 109.433,181.160 107.345 C 183.364 106.202,186.800 102.824,186.800 101.801 C 186.800 101.453,187.160 100.462,187.600 99.600 C 188.703 97.438,188.603 95.358,187.230 91.943 C 186.181 89.330,183.172 85.600,182.114 85.600 C 181.970 85.600,181.480 85.258,181.026 84.840 C 180.572 84.421,178.940 83.416,177.400 82.605 C 175.860 81.794,174.420 80.989,174.200 80.817 C 173.980 80.645,173.080 80.274,172.200 79.991 C 171.320 79.709,170.240 79.254,169.800 78.979 C 169.360 78.704,168.050 78.282,166.889 78.042 C 165.140 77.679,163.602 77.010,162.400 76.089 C 162.290 76.005,162.110 71.855,162.000 66.868 L 161.800 57.800 160.322 55.800 C 158.859 53.822,156.396 51.600,155.665 51.600 C 155.457 51.600,154.503 51.244,153.544 50.809 C 151.469 49.867,149.192 49.810,147.000 50.644 M152.600 51.210 C 152.820 51.385,153.630 51.647,154.400 51.793 C 155.962 52.087,157.426 53.284,159.800 56.207 L 161.400 58.177 161.521 67.285 C 161.639 76.172,161.663 76.406,162.513 76.860 C 162.992 77.117,163.600 77.543,163.865 77.808 C 164.130 78.073,165.288 78.415,166.439 78.567 C 167.590 78.720,168.976 79.195,169.519 79.622 C 170.063 80.050,170.889 80.403,171.354 80.406 C 171.819 80.409,172.650 80.668,173.200 80.980 C 173.750 81.293,175.124 82.014,176.254 82.582 C 177.384 83.150,178.984 84.152,179.809 84.807 C 180.635 85.463,181.465 86.000,181.655 86.000 C 182.096 86.000,183.625 87.350,185.279 89.199 C 185.652 89.616,186.165 90.732,186.418 91.679 C 186.671 92.626,187.047 93.606,187.253 93.858 C 187.859 94.598,187.732 97.701,187.042 99.000 C 186.692 99.660,186.404 100.629,186.402 101.153 C 186.400 102.267,182.590 106.400,181.567 106.400 C 181.204 106.400,180.450 106.760,179.891 107.200 C 178.441 108.340,173.522 108.340,171.800 107.200 C 171.140 106.763,170.307 106.404,169.949 106.403 C 169.591 106.401,169.051 106.102,168.749 105.738 C 168.447 105.374,167.615 104.832,166.900 104.533 C 166.185 104.234,165.600 103.826,165.600 103.626 C 165.600 103.426,164.925 103.045,164.100 102.780 C 163.275 102.516,162.307 102.044,161.950 101.732 C 161.592 101.421,160.602 101.055,159.750 100.919 C 158.897 100.784,157.758 100.387,157.217 100.037 C 155.708 99.058,143.999 99.115,142.904 100.106 C 142.482 100.488,141.625 100.800,141.000 100.800 C 139.180 100.800,133.627 103.684,131.257 105.860 C 130.742 106.333,130.149 106.873,129.939 107.060 C 128.357 108.472,126.312 111.230,125.983 112.395 C 125.765 113.168,125.320 114.149,124.994 114.576 C 124.320 115.458,124.132 122.187,124.771 122.582 C 124.975 122.708,125.357 123.484,125.620 124.306 C 125.883 125.128,126.400 126.160,126.767 126.600 C 127.135 127.040,127.669 127.850,127.954 128.400 C 128.563 129.577,132.775 133.225,134.085 133.710 C 134.585 133.895,135.131 134.292,135.299 134.592 C 135.467 134.892,136.182 135.264,136.886 135.419 C 137.591 135.574,138.805 136.023,139.584 136.417 C 140.363 136.811,142.170 137.259,143.600 137.412 C 145.030 137.566,146.539 137.870,146.954 138.089 C 147.369 138.307,150.826 138.638,154.637 138.824 C 159.672 139.069,161.904 139.337,162.804 139.802 C 163.486 140.154,164.978 140.550,166.122 140.682 C 167.265 140.814,168.610 141.239,169.112 141.627 C 169.613 142.016,170.722 142.452,171.576 142.596 C 172.430 142.740,173.433 143.195,173.806 143.606 C 174.178 144.018,175.004 144.469,175.641 144.609 C 176.279 144.749,176.800 145.015,176.800 145.201 C 176.800 145.386,177.430 145.746,178.200 146.000 C 178.970 146.254,179.600 146.624,179.600 146.823 C 179.600 147.021,180.320 147.551,181.200 148.000 C 182.080 148.449,182.800 148.993,182.800 149.208 C 182.800 149.424,183.038 149.600,183.328 149.600 C 183.618 149.600,184.231 150.005,184.689 150.500 C 185.148 150.995,186.170 151.990,186.962 152.710 C 187.753 153.431,188.400 154.196,188.400 154.410 C 188.400 154.625,188.625 154.801,188.900 154.803 C 189.175 154.804,189.760 155.380,190.200 156.083 C 191.565 158.264,191.774 158.580,192.700 159.870 C 193.195 160.559,193.600 161.299,193.600 161.513 C 193.600 161.727,193.861 162.118,194.180 162.383 C 194.498 162.648,194.971 163.525,195.230 164.332 C 195.489 165.139,195.928 166.070,196.206 166.400 C 196.483 166.730,196.912 167.962,197.159 169.138 C 197.406 170.314,197.876 171.659,198.204 172.127 C 199.200 173.549,199.065 188.869,198.042 190.553 C 197.626 191.239,197.156 192.610,196.999 193.600 C 196.842 194.590,196.485 195.670,196.207 196.000 C 195.929 196.330,195.489 197.261,195.230 198.068 C 194.971 198.875,194.498 199.752,194.180 200.017 C 193.861 200.282,193.600 200.753,193.600 201.065 C 193.600 202.316,185.015 211.989,182.956 213.057 C 182.451 213.318,181.805 213.725,181.519 213.960 C 179.460 215.657,178.490 216.325,177.753 216.555 C 177.287 216.701,176.584 217.176,176.191 217.610 C 175.798 218.045,175.078 218.400,174.592 218.400 C 174.106 218.400,173.248 218.762,172.686 219.204 C 172.125 219.645,171.065 220.123,170.332 220.266 C 169.600 220.408,168.373 220.857,167.606 221.262 C 166.839 221.668,165.644 222.000,164.950 222.000 C 161.963 222.000,161.824 222.443,161.600 232.664 L 161.400 241.800 159.980 243.780 C 159.200 244.870,157.670 246.400,156.580 247.180 L 154.600 248.600 149.800 248.600 C 145.542 248.600,144.906 248.510,144.171 247.800 C 143.715 247.360,142.815 246.530,142.171 245.954 C 138.966 243.093,138.822 242.509,138.810 232.314 L 138.800 224.428 137.677 223.279 C 136.886 222.469,135.999 222.054,134.674 221.872 C 133.640 221.730,132.390 221.361,131.897 221.052 C 131.404 220.743,130.348 220.376,129.551 220.236 C 128.755 220.097,127.692 219.627,127.190 219.192 C 126.688 218.756,125.969 218.400,125.593 218.400 C 125.216 218.400,124.450 218.040,123.891 217.600 C 123.331 217.160,122.690 216.800,122.465 216.800 C 122.241 216.800,121.819 216.566,121.529 216.281 C 121.238 215.995,119.920 215.054,118.600 214.189 C 117.280 213.324,116.133 212.457,116.052 212.263 C 115.970 212.068,115.565 211.620,115.152 211.266 C 114.738 210.912,114.398 210.437,114.396 210.211 C 114.394 209.985,113.950 208.900,113.409 207.800 C 111.440 203.798,114.017 195.085,117.423 194.230 C 117.879 194.116,118.690 193.642,119.224 193.179 C 120.692 191.906,128.545 192.142,129.901 193.500 C 130.396 193.995,130.972 194.400,131.182 194.400 C 131.609 194.400,134.273 196.079,135.200 196.933 C 135.530 197.237,136.340 197.615,137.000 197.774 C 137.660 197.932,138.504 198.337,138.877 198.672 C 139.249 199.007,140.599 199.417,141.877 199.582 C 143.154 199.748,144.740 200.107,145.400 200.380 C 146.967 201.029,153.197 201.044,154.397 200.401 C 154.905 200.130,156.490 199.762,157.919 199.585 C 159.505 199.389,160.957 198.939,161.643 198.431 C 162.262 197.974,163.154 197.600,163.626 197.600 C 164.402 197.600,165.922 196.613,167.634 194.998 C 167.982 194.669,168.463 194.400,168.703 194.400 C 169.243 194.400,172.800 190.379,172.800 189.769 C 172.800 189.524,173.156 189.001,173.592 188.607 C 174.028 188.213,174.488 187.240,174.614 186.445 C 174.741 185.650,175.104 184.409,175.422 183.686 C 176.148 182.037,176.163 180.016,175.459 178.989 C 175.162 178.555,174.794 177.402,174.643 176.426 C 174.476 175.352,174.058 174.436,173.583 174.103 C 173.153 173.802,172.800 173.244,172.800 172.865 C 172.800 172.043,168.855 167.965,167.295 167.175 C 166.693 166.870,165.691 166.211,165.069 165.710 C 164.447 165.210,163.652 164.800,163.301 164.800 C 162.950 164.800,162.364 164.529,161.999 164.199 C 161.633 163.868,160.270 163.401,158.969 163.160 C 157.668 162.920,156.243 162.522,155.802 162.275 C 155.334 162.014,151.825 161.734,147.368 161.604 C 141.165 161.423,139.544 161.255,138.712 160.710 C 138.149 160.341,136.723 159.914,135.544 159.760 C 134.365 159.607,132.773 159.148,132.006 158.740 C 131.239 158.333,130.228 158.000,129.760 158.000 C 129.291 158.000,128.450 157.640,127.891 157.200 C 127.331 156.760,126.612 156.400,126.293 156.400 C 125.973 156.400,125.049 155.950,124.238 155.400 C 123.428 154.850,122.513 154.400,122.206 154.400 C 121.899 154.400,121.531 154.213,121.390 153.984 C 121.154 153.602,118.916 152.009,117.161 150.972 C 115.962 150.264,109.408 143.475,108.886 142.400 C 108.619 141.850,107.785 140.590,107.033 139.600 C 106.281 138.610,105.545 137.296,105.397 136.681 C 105.249 136.065,104.784 135.347,104.364 135.085 C 103.886 134.786,103.600 134.155,103.600 133.398 C 103.600 132.733,103.231 131.499,102.780 130.657 C 100.970 127.281,100.779 110.638,102.519 107.979 C 102.871 107.440,103.280 106.243,103.428 105.318 C 103.576 104.394,104.035 103.331,104.448 102.956 C 104.862 102.582,105.200 101.882,105.200 101.400 C 105.200 100.919,105.650 100.001,106.200 99.362 C 106.749 98.723,107.199 98.003,107.200 97.762 C 107.200 97.521,107.560 96.998,108.000 96.600 C 108.440 96.202,108.800 95.692,108.800 95.468 C 108.800 94.917,117.630 86.239,118.892 85.548 C 119.444 85.247,120.639 84.591,121.548 84.092 C 122.456 83.592,123.200 83.027,123.200 82.836 C 123.200 82.645,123.824 82.372,124.587 82.229 C 125.350 82.086,126.223 81.720,126.527 81.416 C 126.831 81.112,127.806 80.668,128.693 80.429 C 129.581 80.190,130.513 79.746,130.765 79.442 C 131.018 79.138,132.210 78.766,133.416 78.615 C 134.895 78.431,136.030 78.000,136.904 77.291 C 137.617 76.713,138.290 76.172,138.400 76.088 C 138.510 76.004,138.690 71.848,138.800 66.852 C 139.023 56.709,138.887 57.206,142.400 53.767 C 144.812 51.407,150.921 49.875,152.600 51.210 M232.831 176.112 C 231.102 176.672,226.980 180.671,226.195 182.551 C 225.106 185.158,225.463 192.048,226.774 193.711 C 228.527 195.934,230.185 197.600,230.647 197.600 C 230.951 197.600,231.200 197.775,231.200 197.989 C 231.200 199.465,234.700 199.629,263.656 199.513 L 291.819 199.400 293.840 198.103 C 301.740 193.033,301.808 182.412,293.976 176.983 L 292.269 175.800 263.234 175.734 C 242.910 175.689,233.789 175.802,232.831 176.112 M293.413 177.300 C 298.189 180.921,299.243 183.514,298.619 190.102 C 298.314 193.320,297.905 193.958,294.131 197.100 L 292.089 198.800 262.698 198.800 C 233.914 198.800,233.287 198.784,232.291 198.000 C 231.731 197.560,231.079 197.200,230.840 197.200 C 230.330 197.200,228.902 195.647,227.345 193.400 C 225.927 191.353,225.623 183.922,226.900 182.511 C 227.285 182.085,227.605 181.571,227.612 181.369 C 227.639 180.504,230.897 177.591,232.800 176.728 C 233.130 176.579,246.636 176.444,262.813 176.428 L 292.226 176.400 293.413 177.300 M232.600 226.208 C 226.847 228.974,223.786 236.376,225.994 242.185 C 227.047 244.953,230.951 248.481,233.645 249.100 C 237.146 249.904,289.144 249.811,291.888 248.996 C 297.309 247.386,301.444 239.429,299.400 234.538 C 299.070 233.749,298.800 232.785,298.800 232.397 C 298.800 231.392,294.354 226.907,292.653 226.197 C 290.552 225.319,234.428 225.329,232.600 226.208 M293.100 227.100 C 293.595 227.595,294.166 228.000,294.369 228.000 C 295.768 228.000,298.389 232.340,298.643 235.078 C 299.251 241.616,298.507 243.525,293.764 247.600 L 292.600 248.600 262.528 248.600 C 234.289 248.600,232.413 248.557,231.728 247.891 C 231.328 247.501,230.513 246.820,229.919 246.377 C 226.482 243.817,224.579 235.076,226.900 232.511 C 227.285 232.085,227.600 231.539,227.600 231.297 C 227.600 230.734,230.165 228.000,230.693 228.000 C 230.913 228.000,231.530 227.655,232.065 227.234 C 233.520 226.090,233.260 226.099,263.800 226.151 L 292.200 226.200 293.100 227.100 M106.694 276.758 C 97.332 282.252,98.612 296.078,108.769 299.163 L 111.524 300.000 200.062 299.995 C 286.090 299.990,288.669 299.968,291.037 299.226 C 301.435 295.965,303.023 282.917,293.744 276.981 L 291.584 275.600 200.092 275.620 L 108.600 275.640 106.694 276.758 M292.048 276.752 C 292.573 277.165,293.343 277.570,293.757 277.652 C 294.172 277.733,295.431 278.854,296.555 280.143 L 298.600 282.485 298.600 287.360 C 298.600 291.589,298.494 292.384,297.800 293.370 C 297.360 293.995,296.794 294.861,296.542 295.295 C 296.290 295.729,295.729 296.290,295.295 296.542 C 294.861 296.794,293.995 297.360,293.371 297.800 C 292.245 298.593,291.492 298.601,202.218 298.720 C 106.299 298.848,107.871 298.870,106.129 297.372 C 105.508 296.838,104.787 296.401,104.527 296.400 C 104.267 296.400,103.939 296.039,103.799 295.598 C 103.659 295.157,103.114 294.283,102.587 293.657 C 99.476 289.960,102.392 277.600,106.375 277.600 C 106.649 277.600,107.331 277.240,107.891 276.800 C 109.443 275.579,290.496 275.531,292.048 276.752 M109.600 325.562 C 97.960 328.724,97.124 345.187,108.405 349.100 L 111.000 350.000 200.000 349.998 L 289.000 349.997 291.619 349.079 C 293.059 348.575,294.612 347.788,295.069 347.331 C 295.526 346.874,296.058 346.433,296.250 346.350 C 297.521 345.805,300.000 339.867,300.000 337.369 C 300.000 333.587,296.733 328.462,293.077 326.509 L 291.000 325.400 200.800 325.345 C 151.190 325.315,110.150 325.413,109.600 325.562 M290.400 326.175 C 294.032 327.575,294.598 327.854,295.372 328.624 C 298.786 332.024,300.107 340.458,297.696 343.471 C 297.200 344.092,296.619 345.005,296.406 345.500 C 296.194 345.995,295.740 346.400,295.397 346.400 C 295.055 346.400,294.671 346.671,294.544 347.001 C 294.417 347.332,293.298 347.892,292.057 348.246 C 290.815 348.599,289.629 349.049,289.420 349.244 C 289.201 349.450,251.645 349.600,200.545 349.600 L 112.049 349.600 108.825 348.560 C 107.051 347.988,105.600 347.353,105.600 347.150 C 105.600 346.947,105.150 346.609,104.600 346.400 C 104.050 346.191,103.600 345.800,103.600 345.531 C 103.600 345.263,103.151 344.395,102.602 343.603 C 101.361 341.812,100.871 337.303,101.559 333.996 C 101.987 331.935,105.077 327.600,106.118 327.600 C 106.287 327.600,107.095 327.295,107.913 326.922 C 108.731 326.549,109.760 326.117,110.200 325.962 C 111.857 325.378,288.875 325.587,290.400 326.175 " stroke="none" fill="#7c7c7c" fill-rule="evenodd"></path></g></svg>